<?xml version="1.0" standalone="no"?>
<!DOCTYPE svg PUBLIC "-//W3C//DTD SVG 1.1//EN" "http://www.w3.org/Graphics/SVG/1.1/DTD/svg11.dtd" >
<svg xmlns="http://www.w3.org/2000/svg">
<metadata></metadata>
<defs>
<font id="armychalkregular" horiz-adv-x="1177" >
<font-face units-per-em="2048" ascent="1638" descent="-410" />
<missing-glyph horiz-adv-x="557" />
<glyph horiz-adv-x="2048" />
<glyph horiz-adv-x="2048" />
<glyph unicode="&#xd;" horiz-adv-x="557" />
<glyph unicode=" "  horiz-adv-x="557" />
<glyph unicode="&#x09;" horiz-adv-x="557" />
<glyph unicode="&#xa0;" horiz-adv-x="557" />
<glyph unicode="!" horiz-adv-x="544" d="M0 68q10 31 10 71q0 18 -3 53t-3 52q0 92 88 131q51 -10 92 -13q31 -2 76 0q63 3 88 3q23 -231 23 -308q-45 0 -45 -26q0 -6 4 -15q-18 6 -43 7q-27 0 -85.5 -11.5t-86.5 -11.5q-78 0 -115 68zM0 1626q190 37 221 37q66 0 109 -25l28 -41l31 -98q-20 0 -31 19 q-20 -55 -8 -142q16 -127 17 -139q0 -49 -19 -86l41 -39l-41 -12q-4 -133 -6 -266q-6 -156 -23 -250q14 -131 -88 -140h-81q-43 0 -68 41q-16 35 -16 66q0 43 38.5 115.5t38.5 115.5q0 20 -4 39q-16 4 -24 4q-23 0 -25 -28q-2 -37 -8 -45q-70 129 -80 413q-2 231 -2 461z " />
<glyph unicode="&#x22;" horiz-adv-x="909" d="M6 1479q14 16 27 96q10 66 59 82q31 -27 72 -27q18 0 52 6t48 6q51 0 78 -61l-12 -584q-25 0 -81 -34.5t-95 -34.5q-31 0 -62 16q-33 49 -38 140.5t-38 134.5q-6 37 0 133q4 84 -10 127zM431 1539q3 58 1 81q18 12 49 12q8 0 23 -2h24q45 0 72 27q53 -8 96 -37 q57 -35 58 -84q-1 -22 -13 -47q-18 -61 -18 -143q0 -41 6 -122t6 -118q0 -45 -6 -82q4 -14 4 -27q0 -39 -45 -49q-68 -16 -88 -30q-70 4 -168 79q47 186 47 275q0 70 -18 125q-23 18 -29 57q-4 27 -1 85z" />
<glyph unicode="#" horiz-adv-x="1251" d="M-10 516q0 -55 39 -90q25 8 41 8q66 0 65 -110q0 -12 -2 -37v-35q0 -43 8 -66q12 -14 54 -112q33 -74 73 -74q10 0 25 4q-4 8 -4 16q0 31 41 31q12 0 22 -6l29 188l12 -18q14 16 15 57v27q-2 18 -2 29q0 72 45 88q23 -25 26 -25q8 0 15 25q98 -27 98 -92 q0 -27 -21.5 -88.5t-21.5 -92.5q0 -59 55 -98q-4 18 19 31l69 -72q55 -2 82 31q14 18 28.5 70.5t30.5 68.5q-16 27 -16 57q0 27 14 78q16 45 15 66q2 43 55 41q80 -2 84 0q45 33 59 84q6 29 7 104q0 37 6 62q-88 59 -154 82q-2 23 -2 43q0 78 43 157q84 18 84 19 q28 -1 57 -19q2 29 17 96q14 57 14 103q0 18 -2 41q-39 55 -88 55q-14 0 -29 -2q-35 37 -34 107q0 23 5 71.5t5 75.5q0 70 -29 115q-8 14 -74 14q-74 0 -65 -33q-72 -2 -72 -41q0 -18 20.5 -66t20.5 -71q0 -18 -10 -33l-47 31q8 -37 50 -79t48 -62q-14 -27 -31 -27 q-14 0 -43.5 35t-48.5 33l25 -54q-27 -14 -76 -14q-72 0 -119 27q-6 25 -6 49q0 35 21.5 102.5t21.5 104.5q0 23 -6 43q0 51 -59 53q-84 6 -99 16q-72 -20 -100 -145q-20 -102 -41 -207q-102 -45 -121 -45q-27 0 -49 16l-12 -180q-6 -25 -7 -41q0 -51 85 -74.5t85 -74.5 q0 -20 -10 -51q4 -70 -41 -95q-16 -6 -98 -20q-63 -8 -84 -43q4 -14 4 -35q0 -18 -7 -61t-7 -66zM477 838q0 47 43 80q90 0 101 -3q35 -6 81 -49q-23 -76 -90 -106q-8 -4 -133 -35q4 29 2 63q-4 45 -4 50z" />
<glyph unicode="$" horiz-adv-x="1110" d="M-10 389q0 -102 88 -151q-4 -35 48 -71t50 -54q41 0 118 -35t107 -35q18 0 35 8q33 -51 76 -51q29 0 94.5 36t102.5 30l-11 10q72 0 197 114q12 70 63 170q16 51 17 101q0 61 -33 141q-51 130 -57 148q-2 0 -105 84q-70 55 -123 55q-18 0 -34 -6q-84 84 -84 135 q27 25 26 57q0 18 -9 50t-9 46q0 33 39 48q35 -86 49 -109q37 -53 100 -66q0 33 10 35q18 -27 46 -16q43 18 45 18q18 0 34 -22q12 33 41 40t37 34q-6 20 -35 84q-23 53 -22 83q0 14 4 27q-29 49 -115 96q-129 70 -147 82q-76 55 -94 133h-140v-71q-12 -35 -52 -61.5 t-83 -26.5q-98 -27 -166 -125q-59 -86 -71 -197l-11 10q-16 -20 -16 -49q0 -33 33 -102.5t30 -95.5q18 -106 136 -177q100 -53 200 -108q-12 -41 -4 -168q8 -106 -22 -141q-33 25 -43 88q-12 74 -29 98q-33 0 -97.5 16.5t-99.5 16.5q-55 0 -104 -33q-10 -121 -10 -123z M88 956q33 0 37 -10v-26zM354 1124q0 55 35 107q57 -23 57 -57q0 -25 -34.5 -70.5t-38.5 -59.5v-10q-18 49 -19 90zM559 336l16 201q16 -12 31 -13q10 0 24.5 11.5t22.5 11.5t21 -10q4 -14 4 -33q0 -88 -68 -168h-51z" />
<glyph unicode="%" horiz-adv-x="1683" d="M0 1325q0 -53 29 -92h-17l17 -49h-17l29 -54q-8 -10 -39 -10q39 -39 39 -84q0 -20 -12 -37q41 -102 67 -139q43 -66 127 -108q35 14 94 14h50q33 -2 47 -2q100 0 145 53q4 33 53.5 80t49.5 76q0 25 -27 55q37 45 37 113q0 33 -11.5 104.5t-9.5 106.5q-16 90 -157 233 q-14 -4 -27 -4q-31 0 -72 19.5t-57 21.5q-27 -35 -116 -45t-105 -47q-20 -25 -45 -76t-43 -76l-17 13q-12 -31 -12 -66zM236 92q29 16 69.5 92t85.5 103q4 29 41 92q31 53 25 102q4 -2 8 -2q10 0 25.5 12.5t21.5 12.5q12 0 20 -23q0 57 23 64q53 14 70 28q-27 49 -27 95 q0 39 37 137l16 -10q139 317 287 465l-16 65q10 47 63 86t66 82q-2 8 -15.5 24.5t-13.5 28.5q0 6 2 10q18 -10 35 -57q14 -39 47 -45q0 123 37 184q12 10 35 11q73 -1 106 -64q-31 -92 -124 -263t-120 -257l-16 10q-250 -434 -465 -880q-37 -51 -72 -101q-49 -68 -86 -94 q-16 14 -86 33q-59 12 -79 59zM268 1114q0 41 10.5 118t10.5 103q20 53 53 54q27 0 48.5 -35t21.5 -76q0 -27 -11 -45q2 -8 31 -84q20 -55 21 -88q-1 -75 -99 -98q-86 27 -86 151zM911 287q37 -43 76 -86q47 -55 80 -72q59 -76 195 -76q49 0 131 13q72 47 104 141 q18 53 37 172q16 113 37 156q-4 70 -43 141q-35 66 -72 129l-145 76q-41 23 -82 22q-47 0 -135 -51t-146 -47q-27 -94 -33 -250q-2 -135 -4 -268zM1143 373q0 31 10 95t10 91q0 33 -10 51q18 6 28.5 32t24.5 26q4 0 13 -2q0 -10 11 -24.5t19 -14.5t13 12q6 -31 36 -107 q27 -66 27 -100q0 -53 -51 -92q-18 -37 -21 -41q-10 -18 -34 -39q-76 20 -76 113z" />
<glyph unicode="&#x26;" horiz-adv-x="1419" d="M2 420q0 -20 12 -43q0 -49 58 -123q68 -86 80 -127q0 33 16 45q33 -6 45 -47q12 -33 25 -68q20 -4 124 -32q88 -25 142 -25q88 0 145 57q61 -4 127 20.5t131 49.5q10 -35 80 -57q63 -20 57 -54q25 8 62 9q16 0 49 -2h45q88 0 96 63q-65 153 -155 223q-2 14 -2 29 q0 51 41 111q49 72 59 106l10 -16q4 47 25.5 129t21.5 123q-10 43 -110 40q-137 -2 -142 -2q0 -53 -79 -38l39 -48q-53 -10 -54 -53q0 -6 2 -14q-18 -14 -34 -14q-25 0 -62 30q4 53 -55.5 106.5t-59.5 75.5q0 29 45 64q18 14 80 84q51 55 99 82q-6 23 -7 49q0 35 16.5 103.5 t16.5 101.5q0 39 -16 72q-100 209 -412 208q-109 0 -217 -24q-29 -20 -65 -94q-29 -55 -101 -72q-45 -39 -22 -90q37 -78 37 -86q0 -31 -43 -60q-10 -68 75 -147q94 -84 95 -139q0 -12 -5 -27q-57 0 -130.5 -67.5t-104.5 -69.5q-23 -121 -68 -178q18 -29 19 -56 q0 -20 -15.5 -54t-15.5 -54zM346 1075q63 -27 64 -84q0 -25 -23 -41q-8 16 -12 68q-2 35 -29 57zM350 504q0 51 51 108q66 72 82 109q57 -51 111 -148q59 -104 106 -155q-18 -14 -59 -80q-29 -51 -66 -51q-26 -1 -63 22q-57 4 -96 56l-58 94q-8 23 -8 45zM481 1309 q0 18 2 41q4 43 45 43h16.5h16.5q35 0 47 26l111 -98l-156 -176q-31 41 -56.5 78t-25.5 86z" />
<glyph unicode="'" horiz-adv-x="518" d="M-6 1126q18 39 18 131v138q31 55 61.5 126.5t59.5 120.5q61 -14 121 -28q74 -23 88 -82q-29 -8 -29 -53q0 -49 29 -74l-12 18q-8 -35 -8 -84q0 -84 36 -280q-43 -59 -43 -125q0 -18 4 -39q-14 4 -30 4q-20 0 -57 -7t-54 -7q-49 0 -72 53l-94 137q6 4 29 -16q6 6 6 18 q0 18 -12 38t-27 20q-8 0 -14 -9z" />
<glyph unicode="(" horiz-adv-x="671" d="M-23 612l11 -12q16 55 18 213q0 135 39 205q0 -2 12.5 -17.5t26.5 -11.5q14 12 14 25q0 10 -18.5 31.5t-11.5 37.5q25 92 52 183.5t70 173.5q39 12 82 106q41 86 93 86q18 0 41 -8q12 -16 26 -16q17 0 29 16q12 -23 51 -43q31 -14 27 -51q-225 -375 -226 -987 q0 -180 25 -348q37 -70 98 -261q55 -170 103 -239q-25 -47 -93 -47q-25 0 -76 9t-73 9q-39 12 -44 66.5t-24 68.5q31 18 31 43q0 18 -26.5 65.5t-26.5 78.5q0 23 12 45q-80 23 -119 90q-23 39 -42 136t-42 138q4 14 4 31q0 31 -18 90q-20 70 -25 94z" />
<glyph unicode=")" horiz-adv-x="684" d="M-18 1587q31 45 84 45q25 0 79 -12q49 -12 72 -12q53 -82 107 -162q76 -121 92 -205l10 16q117 -467 104 -727q-4 8 -10 9q-6 0 -10 -9l37 -43q-4 -10 -23.5 -15t-13.5 -23l20 -29q-18 -127 -104 -320q-109 -238 -131 -311q-98 -123 -172 -123q-14 0 -27 6q-10 -4 -20 -4 q-37 0 -72 70q-4 61 63.5 149t67.5 146q0 29 -10 57l10 -10q76 272 82 489q12 2 29.5 -4t23.5 -6q14 0 23.5 18.5t9.5 32.5q0 25 -35 43q-45 25 -51 31q-27 51 -27 117q0 43 17.5 126t17.5 122q0 55 -24 98l-66 55l27 27q-53 82 -107 164q-59 100 -73 194z" />
<glyph unicode="*" horiz-adv-x="923" d="M4 1317q0 35 29 67q45 51 88 52q23 0 80 -26t100 -26l16 113q8 -23 16.5 -47.5t31.5 -28.5q18 23 18 45q0 31 -45 74t-45 59q0 23 45 43q34 -51 106 -43l13 15q51 -39 51 -84q0 -10 -4 -33.5t-4 -36.5q0 -39 30 -76q14 18 43 21h50q45 2 53 43q45 10 112 -90q0 -47 3 -94 q-2 -43 -52 -50q-12 4 -26 5q-25 0 -64 -23q-49 -27 -65 -31q-6 -35 52 -88t58 -94q0 -16 -8 -37q-18 -43 -68.5 -59.5t-97.5 -30.5q-14 68 -129 180l-127 -180q-55 12 -86 68q-27 49 -53 98h47v41l27 -27q10 12 12 33q2 14 0 41q-2 33 -2 39q12 -12 29 -12q18 0 26 12 q-16 39 -78 59q-39 10 -77 21v-27q-104 43 -105 115z" />
<glyph unicode="+" horiz-adv-x="1357" d="M57 717q0 53 99 43q47 -20 104 -21q41 0 152 21q78 47 92 59q35 41 69 84q-41 94 -102 101q16 16 16 43q0 12 -6 43.5t-6 48.5q0 39 27 63q41 25 102 25q115 0 197 -68q-2 -18 -10 -98q-8 -68 -9 -109q0 -119 60 -164q4 0 202 3q125 0 187 -50q14 -53 14 -116 q0 -113 -45 -183q-74 4 -147 9q-86 6 -140 32q8 -16 -36 -37q-37 -16 -76 -34v-387q-29 2 -59.5 -17.5t-41.5 -19.5q-12 0 -26 12l12 12q-8 -2 -18 -2q-23 0 -75 15.5t-79 15.5q16 12 16 27q0 10 -13 29.5t-15 27.5h53q-33 68 -66 133q-33 78 -30 154q-37 16 -109 18 q-82 2 -123 12q-16 -2 -34 -2q-115 0 -121 86q31 10 30 39q0 23 -22.5 77t-22.5 75z" />
<glyph unicode="," horiz-adv-x="522" d="M0 186q0 41 31 86q25 10 24 37q0 8 -4 29.5t-4 32.5q0 37 43 45q27 -8 98 -2q74 6 103 0q51 -13 63 -58q20 -293 -10 -454q-23 -61 -45 -125q-35 -80 -86 -88q-45 -31 -92 -31q-37 0 -78 20q-29 12 -29 50q0 8 4 36q2 25 0 37q29 0 43.5 38t30.5 38q10 0 21 -4 q20 31 20 61q0 41 -66.5 120t-66.5 132z" />
<glyph unicode="-" d="M-20 621l26 -27q20 72 21 119q0 47 -21 118q111 41 256 41q66 0 205 -11t213 -11q129 0 235 27q90 -63 91 -191q0 -53 -19 -133q-12 -63 -26 -127q-57 8 -127 8q-76 0 -257.5 -14t-281.5 -14q-139 0 -254 20z" />
<glyph unicode="." horiz-adv-x="567" d="M39 272q0 102 74 144q25 -14 71 -15q20 0 62.5 4.5t62.5 4.5q98 0 99 -80q-1 -23 -7 -54q12 -201 -82 -253q-12 16 -32 16t-57 -19.5t-48 -19.5q-6 4 -71 27q-43 16 -68 53q4 23 4 49q0 23 -4 72t-4 71z" />
<glyph unicode="/" horiz-adv-x="823" d="M0 61q113 193 180 517q86 418 125 528q80 227 227 532q31 -20 99.5 -12t101.5 -4q10 -37 10 -72q0 -57 -46 -166.5t-48 -189.5l-10 16q-6 -39 -49 -163q-35 -98 -29 -168l-16 10q-127 -371 -240 -850q-158 -39 -174 -39q-72 0 -131 61z" />
<glyph unicode="0" horiz-adv-x="1169" d="M0 887q25 -82 33 -269q6 -178 35 -260l57 -57l-39 -29q106 -227 301 -233q45 -35 94 -35q20 0 109 25q70 18 121 0q25 47 110 88q76 35 94 104q-8 33 35 96.5t33 108.5l18 -16q0 51 7 229q6 143 6 233q0 219 -31 383q4 10 4 21q0 20 -31.5 42.5t-31.5 37.5q0 16 20 37 q-70 119 -188.5 182t-259.5 63q-113 0 -224 -41q-72 -80 -145 -157q-78 -96 -82 -195l-16 10q-2 -33 0 -90q2 -72 2 -92q0 -111 -31 -186zM369 721v547q27 39 77 67q72 43 89 58q33 -31 114 -64q70 -31 101 -74q-39 -33 -48 -108q-14 -107 -20 -125q4 -10 33 -47 q20 -23 12 -60q-74 -29 -74 -137q0 -18 3 -55t3 -53q0 -160 39 -312q-43 6 -93 -22.5t-83 -75.5q-86 27 -119 98q-20 51 -20 154v34.5v37.5q0 86 -14 137z" />
<glyph unicode="1" horiz-adv-x="831" d="M0 1239q14 10 14 31q0 8 -2 26.5t-2 30.5q0 20 6 37q27 -6 56 -6q57 0 137 31q119 43 123 45q-10 55 35 102t45 102q29 -14 73 -14h25.5h26.5q65 0 96 -43q25 -61 24 -154q0 -35 -4 -105.5t-4 -104.5q0 -92 25 -154q-35 -174 -35 -422q0 -59 6 -283q4 -174 0 -282 q-18 -27 -70 -27h-24q-14 2 -23 2q-57 0 -61 -43q-10 23 -23 23q-8 0 -29.5 -15.5t-35.5 -15.5q-10 0 -21 8q-63 33 -63 107q0 16 4 50t4 50q0 51 -29 78q29 51 29 115q0 63 -29 118q18 -8 56 -8q72 0 71 35q0 6 -2 12q33 20 33 39q0 14 -26.5 40t-26.5 42t20 35 q-23 -14 -41 -14q-33 0 -51 61q-23 78 -33 88q-4 35 -2 80q4 61 4 72q0 74 -43 122q-20 8 -61 9h-66q-102 6 -106 100z" />
<glyph unicode="2" horiz-adv-x="1169" d="M0 129q0 35 12 80q0 115 92 248q74 100 148 202q57 2 132 85t108 96q39 57 96 121q70 78 100 118q-27 41 -41 156q-12 94 -76 141q-16 12 -41 13q-27 0 -98 -31q-55 -23 -65 -123q-14 -119 -45 -156q-113 -16 -150 -16q-92 0 -131 45l-29 139l47 -28l23 57l18 -16 q16 18 17 30q0 18 -34 38t-34 32q0 6 10 16q-8 12 -8 31q0 41 31 88t70 61l210 82q49 6 99 7q258 0 391 -129l18 12q59 -57 90 -151.5t62 -186.5q-10 -14 -22.5 -99t-8.5 -135q-84 -125 -231 -327q-84 -51 -156 -117q-100 -94 -112 -104v-58q-10 16 -23 17q-14 0 -18 -17 q37 -61 122 -61q20 0 63.5 4t67 7t117.5 1q76 -2 119 25q51 -16 68 -82q23 -100 30 -115l-57 -31l10 -41q-8 0 -57 30t-76 30q-29 0 -47 -29q-2 -8 -2 -16q0 -18 23.5 -25.5t23.5 -15.5q0 -10 -16 -31q-57 47 -158 47q-47 0 -160 -16q-104 -14 -160 -13l19 -18 q-35 25 -115 25q-18 0 -58 -2.5t-58 -2.5q-150 0 -150 109z" />
<glyph unicode="3" horiz-adv-x="1157" d="M0 477q45 61 127 62q18 0 54 -3.5t55 -3.5q45 0 77 15q37 -35 41 -127q2 -84 68 -119q82 -14 113 -14q94 0 118 84q-25 18 -24 41q0 16 18.5 51t18.5 51q0 18 -13 33q4 0 14.5 -12.5t16.5 -12.5t10 13q-84 201 -211 200q-31 0 -61 -12l27 29q-86 33 -87 73q0 10 9 23 q25 14 24 37q0 14 -12 42.5t-12 45.5q14 -2 35 -2q76 0 141 30q80 37 106 109l-55 205q-23 18 -45 39q-39 37 -74 37q-14 0 -30 -9q-61 -33 -82 -122q-16 -82 -95 -99q-37 2 -87 -11t-66 -13q-47 0 -90 53q-4 12 -4 24q0 63 94 111l-51 57l51 23q12 -6 23.5 -25.5 t23.5 -25.5q0 10 3 32.5t3 32.5q0 43 -53 54q139 165 508 165q109 -20 197.5 -98t131.5 -186q10 -39 11 -84q0 -78 -39 -195q-55 -164 -58 -170h-39q43 -29 91 -117q57 -111 86 -145q4 -39 4 -80q0 -154 -56 -342q-90 -117 -245 -166q-35 -10 -289 -55q-197 49 -246 125 q-98 18 -133 135q-20 109 -43 217z" />
<glyph unicode="4" horiz-adv-x="1185" d="M0 451q61 -119 199 -119q39 0 126 12t132 12q96 0 161 -43q-16 -10 -16 -30q0 -51 57 -107q-29 -8 -43 -51t-30 -43q-10 0 -25 8q12 -23 70 -33q51 -8 57 -47q23 -10 43 -10q31 0 77 38t85 40q14 66 -16 194q6 6 16 45q8 31 29 31q8 0 22 -6q92 10 92 98q0 16 -4 56.5 t-4 62.5q0 23 2 41q-20 23 -78 29q-47 6 -59 55q0 72 -2 303q-4 188 -2 301q4 164 16 291q-43 55 -119 55q-20 0 -61 -5t-61 -5q-18 0 -49 7t-48 7q-59 0 -92 -59q-16 -31 -39 -123q-18 -84 -41 -113l-28 29l16 -67q-14 -8 -41 -54q-23 -37 -55 -32q6 -63 -60 -160 q-78 -113 -90 -168l-16 12l-29 -69l-12 12q-90 -139 -80 -395zM315 657q45 70 113 209q72 147 104 203q31 -45 31 -96q0 -10 -31 -139q27 -20 27 -43q0 -20 -28.5 -64.5t-26.5 -69.5h-189z" />
<glyph unicode="5" horiz-adv-x="1132" d="M0 463q31 55 113 67q16 2 137 2q72 -14 86 -77q10 -55 18 -111q20 -61 103 -72l139 -16q4 14 -7 22.5t-22 16.5q4 2 56 12q33 6 43 35q-27 57 -27 127q0 37 10 111.5t10 113.5q0 33 -6 64q-20 14 -75 76q-41 43 -72 43q-33 0 -78 -37q-16 8 -54 -37t-57 -90q-20 6 -53 6 q-25 0 -75 -5t-72 -5q-109 0 -105 102q31 47 31 111q0 25 -6 67q-6 53 -8 70l41 31q-23 242 12 374l16 -10q0 63 21 117q27 68 74 67q12 0 26 -6q49 -16 111 -16q63 0 98 16q88 -8 147 -8t160 8q20 -25 123 -30q80 -4 74 -78q-2 -63 -2 -125q-4 -78 -68 -103q-53 14 -123 15 q-29 0 -85 -3t-85 -3q-104 0 -182 32q-37 -31 -49 -100q-10 -59 -21 -119q63 -16 205 -10q150 8 213 -2q0 -31 37 -31t45 -16q186 -152 187 -449q0 -82 -19 -157q-14 -137 -64.5 -227.5t-156.5 -178.5q-39 0 -78 2q-45 -2 -49 -43q-25 8 -59 8q-27 0 -86.5 -7t-85.5 -7 q-117 0 -117 117q-80 -4 -119 43q-27 47 -53 94q-37 57 -105 70q53 8 54 77q0 23 -15 33q-12 -4 -25.5 7.5t-25.5 21.5z" />
<glyph unicode="6" horiz-adv-x="1153" d="M0 526q18 -12 33.5 -63t40.5 -51q10 0 22 6q-2 -14 -21.5 -39t-17.5 -39q10 -27 25 -27q4 0 16.5 5.5t18.5 5.5q10 0 20 -13q2 -8 -28 -39q27 -20 54 -84.5t70 -78.5q53 -2 145.5 -58.5t164.5 -50.5q53 53 164 41q27 51 83 62.5t80 60.5q37 10 74 92q59 131 62 135v258 q-2 152 -37 240q-43 117 -151.5 166.5t-258.5 29.5q-35 -39 -96 -41q-74 -4 -94 -16q-14 37 -15 84q0 37 8 90q16 86 17 86q78 109 135 109q39 0 86 -56q82 -96 88 -102q61 -57 131 -57q29 0 64 10q94 -6 94 65q0 25 -16 89q-16 57 -11 77l-12 -16l-55 113q-27 6 -63 49 t-62 43q-18 0 -39 -13q-96 39 -209 39q-250 0 -385 -163q-12 -49 -25 -101q-16 -57 -71 -57q-29 -217 -29 -285q0 -211 125 -303q4 -29 -25.5 -94.5t-29.5 -95.5q0 -37 26 -64q-25 -31 -35 -31q-6 0 -15 45.5t-46 36.5zM369 639q-10 68 47 119q59 43 116 84 q25 -14 87.5 -23.5t99.5 -32.5q43 -47 43 -118q0 -43 -17 -107q-14 -51 -26 -102q-43 -76 -103 -117q-39 -27 -124 -59q-78 39 -101 153q-12 100 -22 203z" />
<glyph unicode="7" horiz-adv-x="1101" d="M-4 1419q0 23 3 67t3 62q0 23 -2 39q53 2 123 21q57 16 115 30q12 -29 34 -28q10 0 32 8t34 8q23 0 39 -29q133 20 289 21q160 0 307 -21q25 -53 24 -116q0 -43 -43 -230q-61 -43 -112 -161q-61 -145 -94 -187q-76 -154 -130 -438q-61 -342 -92 -436q-23 -20 -51 -21 q-20 0 -61 14.5t-58 14.5q-33 0 -49 -37q-137 59 -137 143q0 25 10 54l58 -58q31 20 30 41q0 20 -43 55t-45 54l80 28q-29 29 -6 72q18 35 -35 57q35 16 61.5 77t26.5 114l10 -12q16 29 17 47q0 10 -5 23.5t-5 19.5q0 20 24 49l70 57l-31 25q20 53 42 109.5t69 74.5 q-2 6 -15.5 25.5t-13.5 29.5q0 14 16 27q31 12 56 59q29 57 55 80q-20 49 -86 39q-72 -10 -82 0q-10 -2 -10 -39q-27 33 -125 37q-86 4 -103 62q-8 -14 -59 -33q-39 -14 -33 -55q-102 23 -102 157z" />
<glyph unicode="8" horiz-adv-x="1196" d="M-2 508q0 -4 2 -12q25 -41 27 -140q6 -117 16 -155q23 -82 98 -117q39 -6 133 -47q88 -37 134 -37q49 0 86 31q41 -29 94 -29q55 0 147 37q78 31 154 63q57 57 103 154.5t57 181.5q-6 174 -39 264q-45 126 -162 177q2 45 80 118q72 68 61 136q10 35 10 75q0 63 -24 156 q-20 66 -39 133q-37 37 -97.5 68.5t-103.5 72.5q-74 31 -176 31q-111 0 -207 -31q0 -33 -10 -41q-8 18 -29 19q-31 0 -30 0q0 -12 7 -36t7 -34q0 -23 -27 -30q-33 41 -88 40q4 -41 -10 -40q-4 0 -19.5 6t-23.5 6q-20 0 -29 -31q10 -14 11 -29q0 -20 -36 -53t-36 -47 q0 -6 2 -12q-29 -53 -29 -109q0 -80 76 -192q100 -150 113 -176l-101 -58l41 -43q20 -31 21 -57q0 -39 -54.5 -75t-54.5 -56q0 -23 35 -51q-10 -6 -26.5 9t-18.5 15t-2 -8q2 -12 16.5 -36.5t14.5 -39.5q0 -12 -13 -24q-14 0 -41 32q-20 27 -20 21zM354 502q0 145 70 235 q25 6 47 6q150 0 207 -188q10 -37 10 -70q0 -74 -59 -135q-23 -24 -117 -94q-57 2 -76 37q-29 47 -53 61q-29 59 -29 148zM383 1120q14 25 14 68q0 14 -2 45t-2 45q0 80 60 106q37 14 65 15q72 0 105 -121q39 -143 84 -176q-12 4 -23 4q-35 0 -102.5 -35t-100.5 -35 q-57 0 -98 84z" />
<glyph unicode="9" horiz-adv-x="1218" d="M0 1114q0 -53 36 -152.5t36 -156.5q0 -20 -4 -39q18 -94 84 -139q41 -29 139 -56q106 -29 151 -53q18 35 54 35h20q14 -2 21 -2q35 0 55 35h70q37 -4 40 -39q16 -37 17 -74q0 -115 -137 -203q-37 -14 -68 -14q-59 0 -104 59q-33 57 -66 115q-33 -12 -80 -14q-35 -2 -92 0 q-70 4 -92 4q0 -57 -41 -82q49 -31 72 -96q18 -55 39 -111q39 -41 90 -44t88 -54q-2 10 -2 16q0 20 28 23q37 6 43 12q14 -10 29.5 -23.5t15.5 -27.5q16 27 35 26q14 0 46 -29.5t52 -29.5q8 0 17 4q6 41 43 41q12 0 46 -6t50 -6q53 0 70 51l28 -23l150 179l18 -17 q57 223 68 709q-6 31 -21 211q-10 129 -47 176q6 45 -45 106q-80 96 -82 103q-98 111 -315 110q-115 0 -250 -30q-88 -45 -170 -178q-43 -72 -125 -248q-10 -35 -10 -68zM395 1087q0 111 31 232q51 47 94 47q55 0 107 -86q39 -70 75 -139q-25 -84 -24 -133q0 -41 12 -76 q-23 -35 -72 -66q-57 -37 -110 -37q-35 0 -66 17q-47 104 -47 241z" />
<glyph unicode=":" horiz-adv-x="612" d="M96 272q0 102 74 144q25 -14 72 -15q20 0 62 4.5t63 4.5q98 0 98 -80q0 -23 -6 -54q12 -201 -82 -253q-12 16 -33 16q-20 0 -57 -19.5t-47 -19.5q-6 4 -72 27q-43 16 -68 53q4 23 4 49q0 23 -4 72t-4 71zM98 938q0 25 31 260q29 2 109.5 21.5t119.5 19.5q121 1 117 -149 q-29 -25 -29 -60q0 -18 10.5 -54t10.5 -52q0 -35 -33 -54q-25 8 -53 9q-39 0 -103.5 -19.5t-91.5 -19.5q-49 0 -86 43q-2 27 -2 55z" />
<glyph unicode=";" horiz-adv-x="509" d="M-2 938q0 25 31 260q29 2 109.5 21.5t119.5 19.5q121 1 117 -149q-29 -25 -29 -60q0 -18 10.5 -54t10.5 -52q0 -35 -33 -54q-27 8 -53 9q-39 0 -103.5 -19.5t-91.5 -19.5q-49 0 -86 43q-2 27 -2 55zM0 186q0 41 31 86q25 10 24 37q0 8 -4 29.5t-4 32.5q0 37 43 45 q27 -8 98 -2q74 6 103 0q51 -13 63 -58q20 -293 -10 -454q-23 -61 -45 -125q-35 -80 -86 -88q-45 -31 -92 -31q-37 0 -78 20q-29 12 -29 50q0 8 4 36q2 25 0 37q29 0 43.5 38t30.5 38q10 0 21 -4q20 31 20 61q0 41 -66.5 120t-66.5 132z" />
<glyph unicode="=" horiz-adv-x="1427" d="M109 373q43 35 28 82l13 -13q16 12 16 27q0 10 -13.5 29.5t-15.5 25.5q12 -4 19 -4q16 0 21 47t44 45l1034 -28q37 -145 37 -172q0 -76 -53 -123l-84 24q-4 -8 12 -24q-55 4 -116 -19q-70 -25 -107 -28q-2 2 -18 30q-10 18 -27 19q-6 0 -14 -2l-13 -47q-59 10 -139 10 q-41 0 -123 -3t-123 -3q-248 0 -378 127zM109 907v142l41 41l1105 -13q33 -12 33 -35q0 -6 -4 -21t-4 -22q0 -23 29 -32q-6 -23 -6 -54v-22q2 -14 2 -23q0 -70 -78 -84q-6 -2 -103 -10q-61 -6 -67 -37q-123 16 -301 17h-301q-174 4 -287 30q-55 47 -59 123z" />
<glyph unicode="?" horiz-adv-x="1021" d="M0 1280q27 102 43 135q37 72 102 78q-4 14 -4 27q0 41 70 61q88 25 108 47q63 10 123 10q344 1 457 -290q8 -41 8 -84q0 -29 -6 -82.5t-6 -85.5q0 -29 4 -58q0 -82 -72 -155q-68 -61 -135 -123q-76 -80 -86 -170q-45 -106 -180 -107q-51 0 -107 17q-43 12 -43 78 q0 18 4.5 56t4.5 56q0 20 -4 35q49 92 168 236q135 160 157 196q-20 61 -41 121q-23 68 -82 98q-23 18 -43 19q-27 0 -63 -43q-45 -53 -58 -60q4 -14 5 -26q0 -33 -29 -83t-25 -93q-66 0 -131 -3q-72 2 -100 58q12 18 12 37q0 23 -22 53q-27 39 -29 45zM240 119q0 92 41 219 q43 29 104 29q35 0 96 -13q74 -14 97 -16q-12 -16 -13 -29q0 -14 19.5 -34.5t19.5 -28.5q0 -16 -26 -33l40 -29q-16 -20 -34 -86q-10 -43 -62 -59q-86 14 -106 12l-29 -51l-74 20q-51 18 -71 58q-2 18 -2 41z" />
<glyph unicode="@" horiz-adv-x="1648" d="M-4 492q31 -12 51 -60q10 -27 19 -53l-15 -119q59 -88 87 -203.5t50 -152.5q45 -76 170 -144q72 -39 212.5 -69.5t209.5 -63.5q23 49 68 49q23 0 72 -14t75 -14q20 0 39 8q180 23 260 172q-8 8 -8 16q0 16 39 46t39 42q0 6 -4 13q-53 -61 -191 -103q-129 -37 -258 -37 q-61 0 -108 11q-70 0 -223.5 65.5t-196.5 110.5q-109 147 -109 590q0 244 37 393q27 100 150 239.5t225 169.5q31 8 74 9q104 0 211.5 -42t124.5 -96q125 -178 172 -421q31 -164 51 -586q-23 -82 -62 -109q-14 -8 -69 -18q-27 219 -19 465l9 -11q-20 45 -21 89q0 23 6 62.5 t6 61.5q0 39 -14 78q-35 51 -70 103q-45 57 -100 65q-14 -6 -33 -6q-23 0 -70.5 16.5t-70.5 16.5q-35 0 -59 -27q-25 12 -54 13q-53 0 -129 -52q-53 -41 -108 -82q10 -16 10 -30q0 -16 -20.5 -43t-20.5 -43q0 -14 8 -29q6 -72 80 -72q12 0 39 2t39 2q35 0 53 -12 q20 12 44 68.5t59 77.5q14 0 37.5 2t33.5 2q45 0 74 -37q12 -8 12 -21q0 -14 -19.5 -42.5t-15.5 -39.5q-109 -41 -215 -82q-131 -55 -198 -129q-14 -16 -27.5 -70.5t-27.5 -74.5q41 -102 40 -117q0 -23 -8 -65q23 -39 45 -76q33 -51 72 -51q15 0 29 4q29 -47 84 -47 q20 0 60 7t55.5 10t62.5 40q39 29 69 29q14 0 29 -6q76 -66 201 -66q113 16 131 25q86 43 125 184q4 98 31 338q23 199 22 313q0 209 -63 391q-23 70 -121 152q-82 70 -166 137q-45 29 -125 29q-25 0 -79 -4t-79 -4q-80 0 -125 28q-33 0 -67.5 -31.5t-34.5 -58.5q0 -8 4 -16 q-14 4 -53 20.5t-60 16.5q-25 0 -41 -15q37 -47 37 -73q0 -20 -41 -52q-47 -35 -59 -79l-57 71q-14 -8 -15 -16q0 -6 16.5 -19.5t20.5 -21.5l-156 -113q-94 -127 -127 -305q-4 -23 -32 -326h84l-49 -112zM692 311q0 14 4 31q-6 53 52 84q47 22 94 47q49 8 49 -45 q0 -10 -3 -39t-3 -43t2 -27q-57 -84 -111 -104q-84 23 -84 96z" />
<glyph unicode="A" horiz-adv-x="1370" d="M0 41q55 -18 153.5 -22.5t141.5 -18.5q63 18 84 74q8 27 12 112q4 80 27 121q20 55 90 55h33q20 -2 30 -2q51 0 72 27q78 -27 330 -80l-53 -47q-31 -62 -31 -158q0 -25 2 -51q39 -24 97 -24h5q31 0 98.5 9t104.5 9q29 0 55 -4q-68 207 -196 786q-112 504 -221 783 q-8 -14 -17 -15q-8 0 -21 21l-14 22q-74 -6 -145 -10q-19 -1 -36 -1q-60 0 -97 11h-4q-50 0 -74 -43q-10 -18 -23 -82q-10 -45 -26 -43q-10 -12 -10 -26q0 -16 20.5 -55t20.5 -60q0 -20 -15 -39l-45 13q-6 -14 -6 -35q0 -47 23 -86q-27 -51 -86 -88q-14 -119 -119 -435 q-90 -279 -90 -450q-16 0 -25.5 -26.5t-13.5 -26.5q-6 0 -15 12zM516 694q16 78 54 234.5t55 234.5q6 -2 22 -16q10 -10 25 -6l12 10q-10 -45 -10 -90q0 -63 23.5 -169t23.5 -159q0 -39 -8 -80q-27 -14 -54 -14q-33 0 -77 23q-61 31 -66 32z" />
<glyph unicode="B" horiz-adv-x="1232" d="M0 1278l45 -41q8 -8 8 -20t-18.5 -42t-18.5 -47l33 -32q20 -18 21 -35q-4 -12 -41 -12l16 -99l41 13q-4 -12 -4 -29q0 -16 8 -54t8 -57q0 -39 -28 -67q-8 10 -17.5 21t-23.5 7q39 -23 39 -59q0 -18 -11.5 -53t-11.5 -54l-16 19q-23 -33 -23 -59q0 -33 62.5 -82.5 t68.5 -94.5q0 -2 -26 -63q-16 -37 -43 -37q-16 0 -39 14q-1 -4 -1 -9q0 -29 44 -75q55 -59 55 -94q0 -20 -12 -39q-8 10 -15 11q-6 0 -16 -18.5t-14 -20.5q66 -61 135 -62q25 0 47 8q42 -28 100 -28h4q31 0 90.5 8t85.5 8q27 0 48 -4q18 14 67 14h29.5h32.5q84 0 104 43 q66 12 133 58q61 41 86 80q-4 16 -4 32q0 41 34 128t34 151q0 35 -6 74q-16 68 -101.5 170t-95.5 161h47q88 109 88 263q0 143 -78 299q-23 66 -114 100q-80 31 -183 31q-39 0 -73 -7q-47 41 -107 41q-33 0 -95 -15q-54 -13 -79 -13h-6q-23 16 -51 16q-25 0 -77 -17.5 t-79 -17.5q-20 0 -41 6l12 -55q-31 -33 -41 -29q41 -25 41 -92q0 -35 -12 -86l-16 11q2 10 2 -48q0 -25 -17 -24q-6 0 -14 4zM371 1167q0 90 41 156q33 6 59 6q115 0 217 -121q6 18 27 19q31 0 30 0q27 -25 27 -70q0 -32 -16 -57q-6 -4 -13 -4q-10 0 -24 9t-23 9 q-10 0 -20 -14v-5q0 -28 -39 -51q-63 -37 -70 -40l-178 -25q-17 189 -18 189v-1zM373 303q14 44 14 104q1 39 -5 83q-6 45 -6 84q0 59 13 102q43 14 86 14q176 0 281 -180q0 -74 -51 -129q-35 -35 -125 -88q-14 0 -113 -2q-68 0 -94 12z" />
<glyph unicode="C" horiz-adv-x="1179" d="M0 895l39 -41q4 29 4 61q0 41 -9 122t-9 122q0 98 43 168l51 -29q-6 27 -6 52q0 55 34 110q33 45 66 92q25 6 115 50q72 36 120 36h2.5h3.5q45 0 87 -30q8 8 29 8q15 0 35 -4q11 -2 22 -2q35 0 59 26l174 -84q76 -25 115 -149q31 -104 59 -211l-10 -152q-41 14 -74 15 q-20 0 -58 -9.5t-67 -9.5q-20 0 -43 4q-61 35 -84 160q-23 119 -90 150h-125q-68 -8 -106 -68q-2 -92 -19 -307q-16 -199 -16 -307q0 -178 35 -314q74 -82 166 -82q43 0 75 27q35 43 54 141q25 117 43 156q2 29 67 45q88 23 107 35q45 -12 92 -24.5t72 -65.5 q-6 -168 -64 -314q-68 -174 -180 -217q-29 -37 -70 -37q-12 0 -37.5 4.5t-37.5 4.5q-33 0 -56 -27q-49 20 -119 20h-53q-35 -2 -53 -2q-115 0 -180 78q-10 14 -45 45q-27 23 -27 41q0 16 14 37q-10 -4 -18 -4q-18 0 -37 27q-23 35 -39 45q0 27 -15.5 97.5t-15.5 107.5 q0 61 31 104l-41 80q4 0 29 -12q14 35 14 84q0 98 -53 147z" />
<glyph unicode="D" horiz-adv-x="1245" d="M0 406q72 -53 90 -154q10 -98 23 -197q63 -37 143 -37q37 0 106.5 9.5t104.5 9.5q80 0 141 -37q31 53 84 53q14 0 44 -5t42 -5t21 2q76 72 151 143q104 102 109 195q2 12 -4 29.5t-6 23.5q0 14 20 25l12 -10q-6 53 -6 118q0 70 11.5 212.5t11.5 213.5q0 201 -68 344 q-35 131 -153 193q-84 45 -240 63q-115 12 -231 27q-4 -6 -15 -6q-8 0 -29.5 4t-33.5 4q-31 0 -41 -25q-18 -4 -35 -4q-29 0 -129 43l-27 -55l-12 16q-6 -18 -6 -40q0 -45 31 -111q27 -55 55 -109q-51 -41 -51 -131q0 -20 3 -63t3 -64q0 -84 -51 -118q-2 -14 20.5 -34 t22.5 -30t-15 -20q-18 0 -41 16q-8 -45 -8 -125q0 -92 -2 -106q0 -14 6 -15q4 0 12.5 5t12.5 5q8 0 8 -22q-39 -25 -45 -107q-10 -90 -39 -124zM393 299l13 1030q41 14 79 14q88 0 177 -83q70 -74 137 -150q14 -84 14 -291v-24q0 -169 27 -267q0 -123 -148 -174 q-129 -34 -258 -67z" />
<glyph unicode="E" horiz-adv-x="1056" d="M0 1403q0 68 10 129q51 6 66 33q12 37 24 73q64 -36 118 -36h3q29 0 60 8q7 1 73 1t191 -1h20q148 0 240 28q16 -33 55 -39h68v-260q-78 -28 -232 -28h-30q-270 2 -279 2q-10 -90 -9 -156q0 -94 21 -156q42 -11 97 -11q37 0 79 5q152 16 175 17q68 0 122 -21 q16 -55 17 -121v-127q-49 -59 -160 -59q-47 0 -140 13.5t-128 13.5q-80 0 -101 -45q-8 -19 -8 -45q0 -56 35 -148q-29 -12 -29 -31q0 -8 9.5 -29.5t10.5 -33.5q0 -12 -7 -25q68 -14 168 -14h63q41 2 62 2q164 0 264 -43v-9q0 -33 12 -82q14 -56 14 -79q0 -49 -43 -84 q-49 10 -98 10q-117 0 -211 -55q-27 29 -59 29q-10 0 -30.5 -4.5t-31.5 -4.5q-31 0 -55 25q-35 -12 -80 -12q-23 0 -69 4t-68 4q-45 0 -80 -12q-31 18 -57.5 33.5t-38.5 50.5q14 181 14.5 335.5t-14.5 282.5l16 -10q8 55 8 115q0 96 -28.5 283.5t-28.5 283.5z" />
<glyph unicode="F" horiz-adv-x="1038" d="M0 109q33 23 33 59q0 37 -33 49q12 8 43 0q18 -4 25 27l-39 41h67q-53 35 -53 92q0 31 14 72l23 98h-23q0 6 28 59t28 80q0 25 -17 37q-25 35 -27.5 84t-11.5 63h7q33 0 42 37q2 10 3 78q-53 16 -54 53q0 12 6.5 38t6.5 40q0 33 -29 55l18 -10q59 25 60 207q0 45 -4 121 t-4 92q51 39 118 39q33 0 109 -14q49 -8 81 -8q12 0 21 1q55 -2 103 -2q205 0 290 41l97 -57q16 -25 16 -63q0 -29 -14.5 -95.5t-14.5 -97.5q-72 -16 -122 -16q-70 0 -111 28q-27 -12 -114 -13t-124 -13q-57 -20 -63 -82l29 -29q-37 0 -39 -10q0 -18 13 -31.5t26 -25.5 l-39 -29q29 -10 28 -43q-2 -49 -2 -53q15 -1 34 -1q37 0 89 3q92 2 125 2q147 0 232 -45q39 -81 39 -191q0 -21 -1 -43q-59 -59 -163 -59q-33 0 -100.5 8t-102.5 8q-106 0 -168 -63q-20 -33 -21 -68q0 -29 20.5 -85t20.5 -83q0 -43 -30 -78l39 -166q-10 -2 -29 -71.5 t-68 -75.5q-31 31 -80 31q-29 0 -84 -14.5t-75 -14.5q-68 0 -74 107z" />
<glyph unicode="G" horiz-adv-x="1220" d="M0 690h39q23 -2 29 -28q14 39 14 75q0 41 -27.5 109.5t-31.5 114.5q25 -12 28 -13q-2 41 -2 81q0 196 41 378q45 96 117 160q81 71 170 71h12q141 18 219 19q238 0 353 -154q74 -100 96 -340q-37 -20 -72 -20q-33 0 -93.5 29.5t-94.5 29.5q-25 0 -52 -10q-23 51 -45 104 q-31 68 -79 82q-10 29 -37 29q-20 0 -69.5 -24.5t-68.5 -26.5q-81 -247 -81 -522v-7q0 -201 43 -419q10 -57 65 -77t109 -38q66 37 106.5 92t79.5 113q-6 96 -100 143q-72 25 -142 49q4 18 4 45q0 20 -5 62.5t-5 60.5q0 74 78 74h12q29 -6 66 -6q39 0 117.5 12t115.5 12 q106 0 158 -86q10 -82 10 -186q0 -88 -12 -303q-8 -166 -8 -268v-39q-31 -27 -70 -27q-33 0 -94 22q-68 23 -96 27q-23 -10 -146 -35.5t-176 -54.5q-41 41 -128 45t-103 23q0 51 -97 79q-98 147 -98 353q0 27 2 53l39 29q-37 35 -90 108z" />
<glyph unicode="H" horiz-adv-x="1257" d="M0 924q16 47 33 96q25 55 59 55q8 0 17 -2q-8 12 -9 31q0 23 13.5 72t13.5 69q0 52 -67 52q-9 0 -19 -1q10 39 45 119q-45 14 -45 47q0 14 11 42t11 36t-6 12q31 47 144 47q168 -2 170 -2q14 -74 14 -190v-198v3q2 -102 14 -180q57 -28 127 -28h13q64 1 97.5 1t37.5 -1 q0 76 78 131q72 51 71 111v9q-12 -6 -22 -6q-27 0 -50.5 53.5t-48.5 61.5v166q6 100 58 100q14 0 35 -8q20 -20 43 -20q18 0 47 14q43 20 47 22q149 -10 149 -168q0 -27 -3 -77t-3 -72q0 -51 10 -82q-16 -293 -16 -444q0 -225 29 -408q-29 -41 -29 -149v-41q0 -94 -18 -136 q-31 -61 -115 -61q-20 0 -45 4q-31 14 -55 14q-12 0 -32 -4t-30 -4q-25 0 -59 23q16 70 16 151q0 61 -13 184.5t-13 184.5q0 68 10 125q-6 14 -15 14q-6 0 -20 -10q-10 -6 -10 2q0 6 4 23q-27 -14 -84 -15h-35h-37q-94 0 -135 -43q-18 -59 -18 -131q0 -68 26 -221 q22 -125 22 -202q0 -12 -1 -23q-27 -55 -103 -56q-20 0 -56 3.5t-50 3.5t-25 -3q-7 -1 -13 -1q-38 -1 -71 49q-39 58 -65 61q-25 74 -25 180v-2q1 0 12 217q16 10 31 45q8 23 49 23q1 11 1 24q0 59 -31 140z" />
<glyph unicode="I" horiz-adv-x="548" d="M0 176q8 4 23 -10q-12 55 -13 137q0 29 2 85t2 83q0 76 -14 127q23 10 37 57q8 28 41 28q6 0 12 -1q-27 35 -27 82q0 23 8.5 68t8.5 67q0 66 -57 109l28 -13q33 244 33 320q0 158 -61 284q29 0 66.5 12.5t55.5 12.5q33 0 72 -25l10 39q23 -25 82 -32q45 -6 56 -54v-753 q0 -455 16 -760q-132 -40 -200 -40q-12 0 -21 1q-12 10 -69.5 16.5t-78.5 34.5z" />
<glyph unicode="J" horiz-adv-x="1116" d="M0 410q8 2 14 2q14 0 25.5 -27t28.5 -33q12 20 12 41q0 53 -68 113q23 25 101 31q66 4 131 10q94 -14 94 -92q0 -14 -3 -44t-3 -44q0 -84 90 -111q14 -4 29 -4q35 0 77.5 35t57.5 37q-20 20 -29 18l57 29q-14 33 -14 94q-2 55 -2 110l68 11l-29 80h16q-59 51 -65 131 q-1 8 -1 22q0 39 9 125q3 31 3 58q0 54 -13 90q10 -4 28 -21q12 -12 23 -12q12 0 29 16l-39 96l-29 -28q1 20 1 44q0 49 -5 116q-10 121 -10 159q0 68 14 119q31 14 78 14h28.5h26.5q68 0 98 43h2q14 0 31 -20q19 -23 29 -23q8 1 18 15q0 -119 27 -365t27 -371 q0 -74 -7 -141q-38 -66 -38 -147q0 -41 10 -116t10 -114q0 -76 -29 -139l-10 16q-18 -14 -35 -90q-9 -48 -47 -48q-6 0 -14 1q-29 -61 -131 -80q-63 -8 -125 -16q-29 -4 -60 -4q-166 0 -327 72q-37 10 -56 47q-25 51 -36 61q0 86 -68 234z" />
<glyph unicode="K" horiz-adv-x="1249" d="M0 944q57 207 57 410q0 115 -18 233q39 37 123 37q53 0 82 -25q8 -41 84 -73q69 -31 69 -73q0 -15 -4 -32q-33 0 -41 -10q-4 -18 6.5 -33.5t24.5 -15.5q4 0 10 4q-26 -24 -26 -63q0 -23 9 -68t9 -66q0 -18 -4 -30l41 -29q121 158 221 420q18 8 72 63q43 45 88 45l108 -16 q66 -10 97 -51q14 8 14 18q0 -2 -27 37q55 0 68 -78q6 -16 6 -28q0 -29 -39 -58.5t-39 -56.5q0 -10 4 -23l-10 13q-20 -74 -116.5 -203t-116.5 -207l-19 16q-24 -28 -24 -64q0 -34 43 -140q100 -106 200 -328q117 -254 181 -344q-14 -86 -13 -109q-59 31 -135 31 q-100 0 -137 -47q-84 57 -146 170q-29 53 -90 209q-51 133 -94 196q-31 12 -49 13q-18 0 -36.5 -17.5t-39.5 -35.5l-12 -193l-10 16q0 -89 -1 -89l-1 5q2 -45 24 -81q-8 -2 -22 12q-4 -18 0 -49q4 -39 4 -50q0 -45 -33 -77q-10 14 -27 14q-29 0 -43 -27v13q-27 14 -59 14 q-57 0 -117 -43q-8 6 -22 33q-14 20 -23 20q-4 0 -12 -8q-8 31 -8 74q0 131 60 131h5q-16 16 -26 51q-16 53 -19 57q20 0 29 -16q-16 29 -17 61v21q2 14 3 20q0 49 -54 91q0 49 20.5 151t20.5 145t-14 74z" />
<glyph unicode="L" horiz-adv-x="1013" d="M0 965q23 -6 49 4q35 14 35 43q0 10 -4 20l-29 82q29 4 29 43v21q-2 14 -2 20q0 29 14 41q-39 18 -39 49q0 20 24.5 64.5t24.5 62.5q0 27 -32 43l-58 68l58 -29q-2 10 2 32.5t4 33.5q0 31 -25 49q69 26 148 26h6q166 0 166 -114q0 -19 -4 -37q-10 -131 -11 -289 q0 -113 7.5 -338t7.5 -338q0 -104 -4 -194q84 -16 186 -17q43 0 124 4t122 4t78 -4q59 -47 59 -131q0 -31 -18 -143q-84 -47 -187 -47q-90 0 -199 35q-33 12 -73 12q-47 0 -144.5 -21.5t-142.5 -21.5q-109 0 -160 100q8 184 8 373q0 186 -8 367q6 16 17 16l41 -27 q8 14 22 97q-14 12 -31 12q-4 0 -13 -2t-13 -2q-20 0 -35 33z" />
<glyph unicode="M" horiz-adv-x="1638" d="M0 1186q43 -8 43 -49q0 -10 -4 -19q-4 -63 -4 -137q0 -131 45 -641l-16 -12q-15 -13 -25 -11q14 -90 41 -272q9 2 16 2q42 0 51 -47q18 16 56 16q10 0 33.5 -2t35.5 -2q53 0 80 33q27 111 27 248q0 61 -7 179t-7 175q0 129 26 227q45 -96 117 -409q66 -276 156 -420 q8 8 14 8q8 0 22.5 -17.5t20.5 -19.5q20 -4 39 -4q82 0 166 113q-6 49 -6 78q0 37 45 182l18 -16v25q0 128 37 294q41 156 82 311q43 -43 43 -92q0 -8 -2 -43q-4 -27 -2 -47q8 -6 51 -69q26 -38 61 -38q6 0 13 1q8 -25 -14.5 -44.5t-43.5 -35.5l-67 106l16 -176 q-25 14 -27 12q-8 -12 -8 -26q0 -8 2 -21.5t2 -21.5q0 -14 -8 -27l-16 17l28 -58q-8 -10 -40 -10l40 -29q1 -8 1 -16q0 -47 -41 -80q31 -61 59 -121q37 -80 37 -135q74 0 80 -45q25 33 97.5 38t94.5 48q-4 240 -4 600t4 842q-23 74 -108 74q-18 0 -50 -3.5t-45 -3.5 q-25 37 -63 37q-20 0 -70.5 -15t-79.5 -15q-27 0 -49 10q-53 -10 -53 -47q0 -12 7 -42t7 -46q0 -27 -18 -45q4 -14 33 -64q20 -39 20 -63q0 -27 -24 -50l-11 17q0 -6 15 -47q10 -31 10 -49q0 -23 -14 -41l-52 12l-16 -96l-39 57q-2 -32 -2 -83t2 -122l-57 29q71 -48 71 -113 q0 -31 -14 -82q-12 12 -27 13q-18 0 -45 -25q-18 -23 -36 -43q-2 4 -19 53q-8 29 -39 43q10 37 10 74q0 53 -31.5 146.5t-31.5 142.5q0 16 2 35q-57 61 -57 165q0 14 2 39v39q0 113 -70 176q-5 -1 -11 -1q-23 0 -61 18q-53 26 -75 26h-2q-31 0 -56 -26l-16 16q-12 10 -23 6 q-8 -23 -47 -26h-63q-18 -2 -25 -13q12 -10 13 -24q0 -12 -14.5 -37t-16.5 -35l-51 68q-37 -18 -37 -68q0 -29 20 -41l-51 -67q45 -59 45 -125q0 -55 -45 -80zM1157 862l14 -16q14 2 37 0q-6 -10 -6 -17q0 -14 35 -25t35 -26q-1 -10 -17 -28l-84 96q-10 4 -14 16z" />
<glyph unicode="N" horiz-adv-x="1280" d="M0 526q14 4 12 23q-2 27 0 31l17 -13q26 26 26 65q0 44 -43 142l17 -18q-25 76 -25 182q0 61 10.5 178t10.5 166q0 94 -25 150q27 8 27 22q0 4 -3.5 15.5t-3.5 15.5q0 18 31 26l58 -38v86q12 -27 28 -19l13 98q30 -18 73 -18q20 0 43 4q82 14 103 14h4q53 -7 80 -79 q53 -143 127 -381q86 -276 118 -375q23 -20 70 -47q15 24 15 71q-1 25 -5 57q-5 37 -5 67q0 43 11 69q8 -10 17.5 -21.5t23.5 -7.5q27 20 27 51q0 14 -8 43t-8 43q-61 20 -62 72q0 12 3 33.5t3 34.5q0 43 -41 67q16 33 17 80q0 16 -3 50t-3 51q0 86 75 122q43 -16 76 -16 q10 0 78 14q14 2 28 2q32 0 64 -12q29 -84 29 -192v-56q-2 -39 -2 -57q0 -76 14 -135q-2 -104 -10 -426q-8 -264 -8 -424q0 -166 6 -307q-6 14 -27 14l-31 2q-12 -6 -12 -45h-6q-28 0 -78 16q-55 18 -74 17q-10 0 -18 -4q-68 0 -121 30q-66 37 -86 107q-43 86 -119 377 q-59 227 -174 368q-6 -109 -12 -413q-4 -293 -16 -441q-85 -32 -154 -32h-4q-82 0 -156 45q18 47 19 106q0 35 -8.5 103.5t-8.5 103.5q0 72 27 127q-8 10 -21 12z" />
<glyph unicode="O" horiz-adv-x="1255" d="M0 756q25 -10 41 -47q6 -20 14 -43l-10 -95q47 -74 51 -178q6 -135 13 -155q23 -80 118 -132q57 -31 167 -55t167 -51q16 39 53 39q16 0 56.5 -11.5t60.5 -11.5q16 0 31 7q135 18 213 163q25 49 92 265q2 35 18 266q14 164 15 268q-1 227 -56 387q-18 53 -96 119 q-66 55 -131 108q-37 23 -98 23q-20 0 -63.5 -3t-63.5 -3q-61 0 -98 22q-25 0 -52.5 -24.5t-27.5 -46.5q0 -6 2 -13q-12 2 -43 15.5t-47 13.5t-31 -12q29 -37 29 -58q0 -16 -34 -41.5t-46 -60.5l-43 55q-12 -6 -13 -12q0 -6 13.5 -16.5t15.5 -16.5l-123 -88 q-69 -93 -69 -244q0 -35 3 -101t3 -99q0 -37 -2 -68h65l-39 -88zM377 1116q31 29 45 133q10 88 72 107q25 6 47 6q53 0 96 -33t57 -80q59 -84 60 -211q0 -35 -5.5 -103.5t-5.5 -103.5q0 -137 74 -221q-27 -31 -51 -123q-29 -102 -49 -137q-40 -65 -111 -65h-2q-20 0 -43 4 q-49 0 -82 31.5t-63 62.5q-29 131 -31 360q-4 326 -8 373z" />
<glyph unicode="P" horiz-adv-x="1144" d="M0 532q0 -160 16 -296q68 -20 68 -74q0 -14 -5 -43t-5 -43q0 -55 69 -76q27 -2 52 -2q97 0 167 31q1 14 1 88.5t-1 208.5q0 180 29 295q39 14 159 14t169 14q174 82 293 246q-8 20 -8 43q0 32 24 104q23 66 23 107v6q-37 152 -37 158q-23 78 -62 145l-10 -10l-29 51 q-27 8 -75 51q-45 37 -72 37q-23 0 -47 -18q-33 69 -95 69h-8l-122 -32q-21 -5 -39 -5q-49 0 -82 35q-44 -28 -120 -28h-5q-23 0 -88 4q-37 3 -63 3q-13 0 -23 -1q-2 -156 -39 -535q-35 -350 -35 -547zM358 1243q0 76 84 94q201 0 277 -57q-41 -33 -41 -119q0 -18 3 -59 t3 -60q0 -112 -92 -112h-2q-27 0 -62 6q-86 0 -106 6q-49 14 -49 74q10 25 10 55q0 31 -12.5 89.5t-12.5 82.5z" />
<glyph unicode="Q" horiz-adv-x="1241" d="M-18 764q0 -133 55 -313q18 -57 117 -316q94 -119 311 -119q23 0 70 2h67q219 0 313 -122q10 14 37 12q37 -2 41 0q98 98 99 139q-1 11 -5 23q-104 35 -104 147q0 45 16 115q18 82 21 98l18 -16q40 234 40 478q0 41 -1 83q-23 121 -45 244q-29 135 -78 217 q-63 102 -184 157q-43 27 -94 27q-23 0 -67 -7t-66 -7q-51 0 -94 26q-311 -57 -373 -268q-31 -18 -47 -82q-18 -76 -21 -78q-26 -117 -26 -417v-23zM326 1014q23 47 36 133q18 102 31 135q33 2 66 38t57 36q16 0 37 -8q72 -18 141 -138q82 -143 127 -180q-10 -18 -14 -49 q-2 -20 0 -55q2 -48 2 -56l-16 11q-4 -12 -27 -68q-14 -35 -14 -59q0 -29 18 -58q-45 -49 -74 -211q-23 -139 -114 -188h1q0 -2 -106 -2q-74 0 -84 70q-55 109 -55 276q0 33 2 100.5t2 100.5q0 100 -16 172z" />
<glyph unicode="R" horiz-adv-x="1226" d="M0 700q18 -57 18 -159q0 -37 -3 -117t-3 -123q0 -106 17 -180q29 -125 213 -125q33 0 63 4q72 88 72 242q0 37 -5 109.5t-5 109.5q0 186 116 280q8 -4 28.5 -28.5t33.5 -24.5q12 0 24 12q88 -25 117 -90q18 -41 19 -131q2 -98 14 -135l-41 12q4 -12 28.5 -42.5 t24.5 -49.5q0 -14 -12 -28h-12q20 -23 20 -52q0 -22 -10 -46q-9 -22 -9 -40q0 -32 27 -57q49 -45 166 -45q29 0 103 4q28 2 47.5 2t29.5 -2q-30 74 -30 206v9q0 29 2 92v92q0 293 -156 412q170 119 170 385q0 68 -14 127q-47 86 -96.5 173t-139.5 120q-17 -5 -49 -5 q-25 0 -59 3q-41 3 -70 3t-45 -3q-55 -10 -66 -55l-67 67l-41 -27q-10 0 -19 17q-10 -25 -30 -25q-16 0 -38 16.5t-40 30.5q-38 -27 -117 -27q-7 1 -14 1h-22q-71 0 -95 -15q-41 -18 -41 -57q0 -20 14.5 -61t14.5 -58q0 -31 -33 -41q11 -37 11 -117q0 -64 -7 -155 q-2 -27 -2 -51q0 -133 55 -201q-38 -18 -38 -49q-1 -16 9 -35q12 -23 12 -41q0 -26 -24 -41zM387 1243q0 59 27 96q29 -14 116 -14q76 0 109 -31q12 -12 12 -32q0 -6 -2 -15v-12q0 -25 41 -23q-12 -38 -12 -98v-18q1 -47 1 -76.5t-1 -42.5q-4 -25 -10 -39q-21 7 -55 7 q-23 0 -52 -3q-52 -5 -80 -5q-14 0 -22 1q-51 10 -68 68q10 29 10 65q0 29 -7 86t-7 86z" />
<glyph unicode="S" horiz-adv-x="1245" d="M2 489q-1 -10 -1 -21q0 -90 77 -179q96 -115 108 -189q217 -100 387 -100q74 0 144 16q25 39 100.5 46.5t83.5 21.5q74 27 135 192q61 20 62 117q1 105 24 125q-33 43 -57.5 139.5t-50.5 130.5q-63 80 -213 144q-233 96 -242 100q-123 70 -153 178q-8 25 -9 45 q0 45 43 78q10 8 84 51q16 10 31 11q18 0 47 -26t45 -26q14 0 29 15q-2 -12 -2 -23q0 -29 38 -72.5t44 -68.5q141 -45 209 -45q31 0 61 6q27 33 27 84q0 68 -84 254q-72 80 -242 145q-57 8 -111 9q-72 0 -333 -48q-92 -86 -123 -124q-74 -92 -74 -177q0 -25 6 -49l-41 13 q25 -16 25 -43q0 -18 -13.5 -51t-13.5 -44q0 -6 2 -10l154 -258l10 16l29 -55q0 4 -2 29q-2 18 0 28q2 12 12 21q37 -8 49 -57q16 -59 37 -78q43 -37 154 -78q129 -47 174 -74q88 -55 116 -141q-29 0 -28 -33v-14v-12q0 -10 -6 -11q-6 0 -23 15q4 -16 30.5 -53t26.5 -54 q0 -23 -28 -41q-37 66 -68 66q-20 0 -39 -27q23 -12 23 -35q0 -20 -23 -32q-25 53 -96 53q-33 0 -57 -13q-61 18 -84 72q-12 29 -21 107q-10 70 -29 102q-27 -4 -59 -4q-29 0 -83 4t-79 4q-106 0 -139 -72zM340 827l49 -10q-4 -25 -14 -24q-6 0 -18.5 16t-16.5 18zM811 399 v52h12v-52h-12z" />
<glyph unicode="T" horiz-adv-x="1124" d="M0 1475q8 -12 20 -13q18 0 35 29t13 51q-8 14 -17 14q-8 0 -19.5 -12t-17.5 -12q-8 0 -14 22q6 39 53 48q55 10 70 30q38 -24 77 -24h3q27 0 79 15t78 15h3q43 0 83 -28q47 -14 107 -15q49 0 150.5 15.5t152.5 15.5q86 0 152 -33q-4 -18 -4 -47q0 -23 4 -71t4 -70 q0 -96 -85 -96h-3q-18 -6 -43 -6t-71 10t-65 10q-49 0 -65 -53q12 -123 12 -271q0 -119 -12 -352t-12 -348q0 -131 12 -242l-29 29q-12 -8 -12 -41q-8 -2 -137 -8q-82 -4 -107 -37q-88 39 -88 162q0 29 5 81t5 76q0 29 -6 50q-1 11 -1 28q0 34 5 90q10 102 11 146 q0 66 -15 104q4 2 51 0q31 -2 33 29l-55 29q4 10 61 12q39 0 39 29q0 10 -4 26q-8 6 -16 6q-12 0 -36 -10t-32 -10q-22 0 -22 35v2q0 35 -18 96q-18 63 -17 90q0 45 33 74q-4 16 -4 31q0 57 55 94q-33 59 -96 59q-20 0 -69.5 -9t-74.5 -9q-49 0 -84 26q-18 25 -37 49 q-24 32 -24 58q0 16 6 31z" />
<glyph unicode="U" horiz-adv-x="1265" d="M0 903l16 -16q10 111 19 223q12 131 51 211q-29 8 -29 25q0 6 7.5 21t7.5 24q0 16 -31 28l45 219l301 -41q18 -152 19 -319q0 -106 -10.5 -320.5t-10.5 -334.5q0 -78 2 -154q6 -10 33 -113q18 -70 65 -106q32 -3 58 -3q80 0 100 32q55 14 55 81q0 14 -4 27 q12 4 28.5 -11.5t22.5 -15.5q10 0 19 17q4 23 -17.5 50.5t-23.5 41.5l82 -23q-14 12 -14 37q0 8 3 30t3 32q0 51 -62 63q35 35 35 92t-35 93l17 -17q16 10 16 27q0 8 -6 23.5t-6 19.5q0 16 37 16q-20 18 -45 40t-25 52q-29 98 -29 250q0 174 41 434q43 -14 103 -14 q27 0 79 4t78 4q35 0 64 -6l41 -127q0 -41 -10.5 -123t-10.5 -121q0 -66 21 -114l-17 12q-1 -18 -1 -38q0 -90 30 -200q-45 -174 -45 -264q0 -63 16 -125l17 13v-9q0 -44 -16 -96q-18 -58 -19 -92q0 -25 6 -53q-29 -35 -55 -68q-28 -36 -28 -61q0 -4 1 -8q-57 -49 -117 -99 q-65 -53 -103 -53h-5q-123 -20 -221 -20q-213 0 -346 102l-127 178h16q-10 12 -14 90q-2 47 -31 68q18 23 18 63q0 25 -11 79t-11 79q0 63 61 84l-41 25q29 0 41 16q-27 8 -56.5 50t-41.5 89z" />
<glyph unicode="V" horiz-adv-x="1275" d="M0 1544q0 23 9 44.5t34 21.5q8 0 21.5 -3t17.5 -3q14 0 14 16q0 8 -4 18q96 -8 193 -14q112 -17 135 -123q0 -53 19.5 -144t19.5 -134q0 -41 -10 -76l38 -19q-16 -14 -16 -30q-1 -14 25 -48q21 -28 21 -49q0 -5 -1 -10l-10 19q0 -31 13 -74t13 -64q0 -27 -16 -57 q29 -14 39 -90q10 -68 31 -68q18 0 57 37v41l10 -18q-8 23 -8 43q0 51 58.5 132t58.5 120q0 41 -39 78q10 -6 18 -7q27 0 68 93q-18 2 -18 20v31l18 -13l22 70l17 -18l12 166q6 -10 14 -11l44 29q-23 18 -19 43q8 33 0 49l-51 45q55 23 96 23q8 0 21 -2h20q45 0 109 30 q71 -12 71 -66q0 -19 -11 -65.5t-11 -70.5q0 -25 8 -43q-86 -219 -156 -566q-117 -565 -118 -573l-17 10q6 -23 6 -47q0 -45 -25.5 -96t-49.5 -103q-31 27 -82 27q-41 0 -130.5 -22.5t-127.5 -22.5q-117 0 -123 168q-25 68 -39 254q-12 162 -60 244q10 -16 29 -17q4 6 4 17 q0 31 -20.5 57.5t-51.5 21.5l52 41q-104 176 -150 508q-2 -4 -2 -8q0 -6 12 -6q18 0 47 12.5t29 22.5q0 12 -57 8q-121 135 -121 221z" />
<glyph unicode="W" horiz-adv-x="1771" d="M2 1542l39 68q29 -8 74 -8q14 0 45 2h45q117 0 166 -74q20 -70 22 -170q2 -86 2 -172q4 -123 43 -215q18 -41 29 -162q6 -92 51 -127q-4 27 -4 55q0 78 55 265q46 161 46 268q0 13 -1 24q43 4 43 47v16.5v16.5q0 37 27 47l-41 78h2q13 -1 33 65q22 72 74 72 q35 -29 104 -30q92 0 111 -6q59 -16 86 -82h-17q4 -129 49 -383q43 -244 48 -369q47 -47 69 -47q8 0 15 2q29 72 51 255t57 279q16 14 16 35q-1 18 -25 72q-21 47 -21 77q0 5 1 9q14 -4 23 -4q14 0 14 14q0 8 -6 34t-6 40q0 25 16 37q51 37 108.5 47t113.5 20q14 -23 75 -43 q51 -16 52 -53q0 -16 -9 -41l-39 -26l29 -25q-41 -37 -45 -135t-41 -125q-6 -180 -43 -391q-33 -186 -65 -371l-11 10q1 -10 1 -21q1 -69 -33 -165q-35 -101 -35 -168v-14q-66 -70 -148 -70q-31 0 -92 12.5t-92 12.5q-27 0 -49 -7q-6 27 -74 445q-45 266 -109 426 q-55 -139 -81.5 -436t-77.5 -435q-29 10 -64 11q-35 0 -103.5 -13.5t-101.5 -13.5q-84 0 -129 68q6 29 7 59q0 49 -25 138q-23 82 -23 125v7l13 -16q18 25 18 68q0 10 -2 16q-10 -4 -20 -4q-20 0 -29 29q-4 23 -8 45q-45 80 -45 221v63q2 43 2 64q0 129 -35 209q6 6 12 6 q8 0 20.5 -18.5t20.5 -18.5q12 0 25 18q-14 61 -78 62q-16 0 -29 -10q-33 102 -65 204t-32 176q0 15 1 29z" />
<glyph unicode="X" horiz-adv-x="1234" d="M0 137v39q2 2 29 -10q20 88 147 297q109 180 109 305q12 -4 22 -4q27 0 43 44q15 40 42 40h5l-84 57l29 23q-70 51 -123 145l-82 172l29 23q-16 39 -90 137q-59 80 -60 135q0 29 13 59q80 10 215 39q10 -43 43 -43q6 0 21.5 3.5t23.5 3.5q35 0 49 -43q35 -33 57 -119 q29 -119 39 -140q31 -76 98 -100q-2 10 -2 23q0 47 57.5 119.5t57.5 113.5q0 16 -6 35l80 10l-23 41l68 17l-16 51q68 14 120 14q115 0 181 -65q-106 -262 -330 -740q51 -76 125 -254q68 -164 137 -252q0 -39 48 -119.5t48 -115.5q0 -47 -57 -78q-72 14 -142.5 28.5 t-125.5 14.5q-27 0 -56 -4q-4 53 -53 149q-43 90 -43 154q-35 20 -43 88q-8 59 -65 66q-10 -78 -96.5 -223.5t-96.5 -233.5q-18 8 -47 8q-25 0 -82 -6t-86 -6q-127 0 -127 102z" />
<glyph unicode="Y" d="M0 1546q0 66 55 92q49 -30 119 -30h4q45 0 82 14q80 -53 121 -156q8 -18 55 -188q33 -117 82 -178q8 6 25 47q12 33 26 33q8 0 19 -11l8 144q6 86 37 131l12 -12v9q0 35 28 79q32 49 29 77q31 0 103 12.5t108 12.5q100 0 156 -70q-43 -133 -151 -358q-119 -248 -158 -354 q-72 -199 -72 -369q0 -80 14 -156q-16 -59 -26 -157q-14 -131 -21 -158q-11 6 -36 6q-18 0 -43 -3q-16 -2 -30 -2q-41 0 -69 15q-37 21 -47 76q-12 66 -31 86q-55 106 -71 289q-12 154 -23 307q-27 172 -112 285q-68 20 -82 110q-14 100 -56 125q2 35 -26.5 124t-28.5 128z " />
<glyph unicode="Z" horiz-adv-x="1140" d="M0 279q0 49 27 83q158 133 166 275l16 -16q-2 49 53 124.5t55 120.5q8 6 17 6q14 0 31.5 -30.5t27.5 -30.5q14 0 33 33q-61 10 -61 47q0 23 43 90.5t43 105.5q0 23 -13 41q16 -4 26.5 12.5t12.5 16.5q6 0 19 -16q43 29 43 90q0 10 -2 47q-2 29 -2 45q-31 12 -60 12 q-47 0 -88 -28q-34 22 -82 22h-4q-23 0 -64.5 -5t-60.5 -5q-82 0 -104 84q-12 43 -13 92q0 100 52 143q68 0 257 -14t291 -14h11q154 0 250 28q39 -20 47 -26q43 -27 49 -60q-10 -133 -86 -303q-12 -33 -131 -268q-80 -55 -133.5 -206.5t-90.5 -182.5l-12 16q8 -20 8 -39 q0 -49 -66.5 -110.5t-66.5 -87.5q0 -37 68 -78q186 39 266 39q92 0 164 -27q8 -4 31 -12q14 -4 23 -13.5t14 -31.5q2 -51 2 -101q-2 -61 -31 -116q-231 -31 -465 -31q-236 0 -467 31v7q-1 41 -21 119q-22 85 -22 122z" />
<glyph unicode="[" horiz-adv-x="661" d="M0 1544q0 78 84 76q2 -23 46 -6.5t58 -22.5q20 39 52 39q27 0 69 -31q59 -43 66 -45q10 2 10 37q14 10 27 11q16 0 44.5 -20.5t45.5 -20.5q8 0 16 4q27 -33 27 -82q0 -59 -39 -144q-18 -4 -62 2q-49 8 -67 9q-59 0 -68 -50q8 -150 8 -333q0 -131 -6 -393.5t-6 -393.5 q0 -121 4 -225q25 -39 94 -43q90 -4 105 -12q47 -20 37 -105q4 -14 4 -28q0 -76 -70 -103q-119 8 -237 17q-106 12 -224 77q-12 209 -12 406q0 199 12 411q2 -2 17 -26q8 -16 20 -17q8 0 19 5q8 12 8 22q0 12 -35 33.5t-29 48.5q12 -14 21 -14q6 0 15 23.5t30 19.5 q-29 6 -29 37q0 6 2 16v14q0 31 -39 25q2 27 13 26q4 0 17 -8t20 -8q10 0 16 12l-66 56l82 -29q12 10 13 33q-2 29 -2 35q-27 14 -52 30q-31 20 -41 52l56 10q-59 55 -60 137q0 33 10.5 95.5t10.5 92.5q0 57 -29 99q4 12 4 30t-5 59.5t-5 59.5z" />
<glyph unicode="\" horiz-adv-x="858" d="M-2 1550q0 -57 45 -165.5t49 -190.5l10 16q6 -39 50 -163q35 -98 28 -168l17 10q127 -371 239 -848q158 -41 174 -41q72 0 131 61q-113 193 -180 517q-88 420 -125 528q-80 227 -229 532q-31 -18 -94 -12q-72 8 -105 -4q-10 -37 -10 -72z" />
<glyph unicode="]" horiz-adv-x="727" d="M6 1462q12 4 29 -10q14 6 14 16q0 8 -26 33h51q-12 31 -51 84l38 -16q10 6 8.5 26.5t20.5 28.5q37 -10 84 -10q41 0 122 11t120 11q74 1 125 -28q-14 -614 16 -1536q-31 -31 -31 -95q0 -29 9.5 -92t9.5 -94q0 -102 -94 -121h-248q-156 8 -180 111q-6 94 73 139l156 62 q4 25 -6 28q-2 2 -23 0q-14 0 -16 10q2 43 18 181q14 106 15 174q0 45 -7 86q12 27 48 26h15h15q43 0 45 52q-45 74 -45 145q0 23 6 43q-12 -10 -28 -10q-33 0 -59.5 38t-22.5 79q14 16 14 34v13q-2 8 -2 10q0 23 33 37l-45 39l55 16l-29 68l68 -56q4 43 -18 113 q-27 86 -31 127q12 41 12 68q0 57 -63 71q-59 6 -119 12q-68 14 -76 76z" />
<glyph unicode="_" horiz-adv-x="1122" d="M4 -92q0 41 27 61q129 37 315 37q51 0 153.5 -4t153.5 -4q158 0 271 27q29 -31 73 -31q6 0 21 2h18q49 0 78 -39q0 -2 -2 -25q-2 -16 0 -24q2 -12 12 -17q-10 6 -16 7q-14 0 -34.5 -30t-43.5 -32q-143 0 -486 5t-513 5q-27 20 -27 62z" />
<glyph unicode="a" horiz-adv-x="1114" d="M0 408q18 -41 37 -84q12 -31 12 -58t-10 -80q29 -45 55 -92q41 -61 88 -61q16 0 33 6q35 -57 102 -57q25 0 73 8t67.5 12t77.5 49q45 35 79 35q18 0 37 -6q43 -43 117 -47q84 -4 127 -33q-2 8 -2 14q0 16 34 34t34 36q-1 11 -9 25q-30 212 -30 454q0 68 2 139l12 -10 q-27 53 -27 107q0 27 8.5 75t8.5 74q0 49 -19 94q-41 63 -82 125q-57 70 -123 80q-18 -8 -38 -8q-29 0 -86.5 19.5t-85.5 19.5q-41 0 -72 -31q-31 14 -64 15q-68 0 -155 -64q-68 -49 -133 -98q12 -18 12 -37q0 -20 -25.5 -52t-25.5 -53q0 -16 10 -34q8 -86 96 -86q16 0 48 3 t48 3q41 0 64 -17q25 16 53.5 84t71.5 93q16 0 45 3t41 3q55 0 90 -45q14 -10 14 -27q0 -14 -23.5 -49t-19.5 -49q-131 -49 -260 -99q-158 -68 -239 -157q-18 -20 -35 -82q-16 -70 -33 -94zM346 371q0 18 6 37q-1 8 -1 15q0 39 28 62q20 18 74.5 42t74.5 40q8 1 15 1 q44 0 45 -54q0 -14 -3 -48t-3 -52q0 -19 2 -33q-70 -102 -135 -125q-102 25 -103 115z" />
<glyph unicode="b" horiz-adv-x="1095" d="M-12 332q0 -143 14 -258l51 -58q18 8 43 9q23 0 71 -12.5t71 -12.5q70 0 104 84q6 -39 45 -40t47 -28q27 0 83 -2t85 -2q111 0 189 33q167 149 167 463q0 78 -12 246q-8 131 -8 212v31q-45 70 -88 140q-43 55 -127 114q-49 29 -119 29q-111 0 -239 -68q6 27 6 54 q0 49 -33 155q-25 78 -25 139q0 16 2 31q-25 4 -90 29q-55 18 -88 18q-53 0 -94 -47q-43 -23 -43 -86q0 -10 4 -59q2 -37 -2 -57q-2 -8 -2 -17q0 -18 27.5 -47t27.5 -45q0 -14 -12 -29l-18 17q-8 -16 -9 -33q0 -25 25 -66t25 -59t-13 -35q-6 12 -25.5 22.5t-25.5 18.5 q8 -80 8 -176q0 -100 -11 -304t-11 -304zM340 489q0 39 11 127.5t11 131.5q0 47 -8 83q37 12 45.5 83t61.5 83q31 6 55 7q84 0 84 -105q0 -16 -2 -51t-2 -53q0 -82 41 -111q-4 -18 -4 -43q0 -37 18.5 -109.5t18.5 -103.5q-1 -34 -15 -59q-25 -8 -81 -50.5t-87 -42.5 q-29 0 -53 23q-94 61 -94 190z" />
<glyph unicode="c" horiz-adv-x="1079" d="M0 938q35 16 50.5 52t29.5 73q41 16 119 117q70 86 129 86q31 0 63 -17q10 31 58 31q77 -2 79 -2q12 2 57.5 -22.5t76.5 -24.5q16 0 30 8q104 -86 113 -94q74 -63 110 -123q-10 -20 -10 -45q0 -27 14.5 -75t14.5 -68q0 -49 -66 -72q-43 -16 -77 -17q-72 0 -125 68 q-43 59 -86 121q-52 59 -122 59h-9q-7 1 -13 1q-37 0 -59 -40q-4 -10 -25 -86q-12 -45 -12 -133v-137q-2 -92 -16 -149q33 -8 34 -62q2 -66 23 -92q14 -43 63 -43q31 0 84 20q98 37 98 174q0 15 -1 31q18 -8 32.5 -37.5t34.5 -29.5l-28 106q20 -55 57 -55q16 0 49 12t47 16 l-29 27q31 -23 81.5 -32t68.5 -23q-41 -133 -41 -229v-17q-121 -215 -369 -215q-18 -16 -51 -16q-18 0 -63 9t-66 9q-12 0 -24 -2q-158 37 -256 188q14 18 14 35q0 23 -35 64t-35 65q-4 201 -12 586z" />
<glyph unicode="d" horiz-adv-x="1120" d="M-23 528q0 -106 23 -204q35 -92 135 -205l12 18q0 -45 55.5 -82t53.5 -55q39 25 104 25q12 0 37 -2h35q90 0 135 57q35 -10 84 -36t70 -32q25 16 80 25q49 8 96 14q43 37 43 88q0 25 -14.5 75t-14.5 73q0 47 43 78q-47 100 -47 239q0 59 12.5 179t12.5 178q0 47 -6 86 q16 -16 28 -11q-10 47 -45 135l45 13q-32 64 -32 156v6q0 23 4 90q1 28 1 50t-1 38l28 -23q-18 113 -80 113q-10 0 -35.5 -3t-39.5 -3q-51 0 -94 30l16 -16q-10 2 -19 2q-16 0 -33.5 -16.5t-31.5 -16.5q-16 0 -41 19q2 -4 20 -21q12 -8 9 -18q-10 -18 -39 -19l51 -51 q-39 -12 -39 -71q0 -20 6 -69.5t6 -74.5q0 -72 -43 -102q-49 59 -145 59q-12 0 -41 -2h-41q-49 0 -84 10l16 -67q-18 -16 -30 -17q-12 0 -36 25t-48 20q0 -53 -58 -108q-66 -66 -77 -109l-13 13v-20q0 -83 -14 -220q-18 -162 -19 -240zM315 635q0 295 162 373q53 -6 82 -43 q16 -20 36.5 -79t41.5 -83q-20 -51 -21 -125q0 -43 10.5 -134t10.5 -134q-27 -53 -86 -76q-70 -25 -90 -49h-9q-69 0 -94 61q-18 66 -34 131q-8 90 -9 158z" />
<glyph unicode="e" horiz-adv-x="1079" d="M0 983q80 -82 80 -231q0 -31 -4 -91.5t-4 -91.5q0 -109 37 -178q0 -272 124 -323q31 -41 113 -41q8 0 23 2h24q74 0 113 -29q213 29 323 176q-2 43 37 117t39 108q0 31 -18 60q-27 37 -53 37q-10 0 -30 -6.5t-32 -6.5q-20 0 -39 21q-23 -31 -78 -32t-69 -36q1 -7 1 -15 q-1 -29 -13 -61q-16 -40 -46 -61q-43 -18 -82 -18q-45 0 -67.5 31.5t-34.5 92t-31 82.5q8 25 19.5 54t36.5 43q27 -2 53 -2q128 0 242 41q20 -43 77 -43q8 0 54 4q33 2 51 0q29 10 61.5 25.5t32.5 37.5q0 8 -2 15q-14 156 -29 311q-35 188 -159 264q-12 -2 -58.5 15.5 t-68.5 17.5q-35 0 -50 -33q-94 43 -211 43q-31 0 -61 -4q-68 -37 -192 -119q-33 -20 -56.5 -93t-52.5 -83zM348 870q0 90 72 164q16 -4 47 0q41 4 49 4q53 0 57 -55q-16 -18 -16 -33q0 -12 24.5 -35.5t24.5 -40.5q0 -14 -10 -28q-39 -18 -98 -19q-20 0 -57.5 2t-53.5 2 q-20 0 -35 -2q-4 20 -4 41z" />
<glyph unicode="f" horiz-adv-x="804" d="M-6 1157q0 -10 6 -61q2 -20 2 -37t-2 -29q82 -12 135 -79.5t68 -159.5l-58 16q0 -16 27 -41t27 -35t-15 -20l-39 39l39 -78q-39 -96 -39 -221q0 -86 39 -316q-2 -16 -21.5 -24.5t-19.5 -18.5q0 -6 2 -14q41 -51 113 -51q14 0 48 3t50 3q57 0 99 -33q37 141 37 354 q0 59 -4.5 179t-4.5 182q0 143 17 248q10 -1 19 -1q56 0 89 31q16 14 64 94q1 8 1 16q0 66 -59 95q-67 33 -133 62q-2 14 -2 24q0 51 66 66q84 18 100 34q10 29 12 64q2 25 0 59q-2 51 -2 62q-48 69 -138 69h-3q-59 0 -149 -28q-121 -41 -123 -41q-70 -45 -70 -154 q0 -14 2 -41v-39q0 -82 -39 -114q-8 -2 -14 -2q-10 0 -27.5 8t-30.5 8q-6 0 -12 -2q-57 -14 -57 -76zM213 874q16 0 39 -18l-23 -27z" />
<glyph unicode="g" horiz-adv-x="1122" d="M-12 389q49 -221 196 -305q2 -37 82 -49q94 -12 113 -31q78 12 108 25q59 25 82 73q20 -20 43 -42.5t27 -45.5q-59 -149 -120 -149h-1q-31 -18 -63 -19q-49 0 -155.5 62.5t-170.5 62.5q-57 0 -113 -37v-16q0 -63 27 -135q29 -72 59 -141q18 4 35 4q37 0 86 -32t76 -32 q25 0 49 20q14 11 36 11q20 0 48 -8q11 -3 20 -3q33 0 48 40q19 -43 75 -43h5q60 3 84 3q11 0 14 -1q2 0 123 102q78 68 102 133q45 270 45 606q0 53 -4 316q-2 100 -2 184t2 152q-12 68 -76 104q-55 33 -131 33q-57 -49 -121 -49q-49 0 -142 44t-140 44q-59 0 -111 -51 q-70 -14 -137 -68q6 -14 6 -29q0 -20 -24 -69q-23 -45 -23 -77v-5l-29 41q-1 -5 -1 -25t1 -55v-11q0 -37 -12 -59l-16 12q-1 -20 -1 -45q0 -50 5 -122q10 -127 10 -175q0 -80 -14 -143zM309 666q27 31 27 90q0 14 -2 59q-2 37 0 59q39 4 39 39q0 14 -11 29q63 18 119 19 q121 0 158 -87q-14 -33 -14 -53q0 -25 24 -53q35 -41 47 -61q2 -18 2 -37q0 -102 -73 -211q-66 -98 -164 -168q-72 18 -101 86q-16 41 -24 143.5t-27 145.5z" />
<glyph unicode="h" horiz-adv-x="1105" d="M-2 162q0 25 4 55q23 49 23 117q0 41 -12.5 125t-12.5 127q0 59 18 108q14 -6 25 -6q25 0 27 37v49l-39 45h28q-14 6 -18 52.5t-23 56.5q-14 59 -14 127q0 76 55 334q-4 25 -32 90q-25 59 -25 88q0 27 16 43q30 24 63 24h3q12 0 35.5 -4t36.5 -4q27 0 51 12q14 -6 78 -20 q47 -12 88 -47q-1 -7 -1 -49.5t1 -120.5v-13q0 -97 -29 -147l45 -108l39 96q27 -16 55 -17q31 0 95.5 33t105.5 35h5q78 0 149 -66q63 -57 98 -139q18 -111 18 -250q0 -90 -11 -271t-11 -273q0 -125 14 -230q-57 -41 -78 -41q-16 0 -59 13q-80 51 -80 186v45q2 29 2 41h23 q4 25 4 49q0 49 -21 119q-18 53 -35 106q16 6 17 23q0 12 -16.5 39.5t-16.5 38.5q0 18 45 12q-31 20 -59 41q-39 33 -39 68l51 -17v7q0 52 -51 112q-63 74 -68 86q-16 16 -51 16h-57q-29 -29 -58 -57q-41 -43 -41 -86q0 -10 2 -21q-6 -51 -6 -114q0 -59 9.5 -181t9.5 -182 q0 -121 -29 -207q29 -14 29 -38q0 -31 -43 -70q-35 -35 -56 -39q-8 12 -55 12q-30 -1 -46 -1t-19 1q-12 4 -15 11q-141 14 -141 139z" />
<glyph unicode="i" horiz-adv-x="546" d="M0 88q0 -23 23 -49q29 -4 61 -4h39q25 2 37 2q76 0 131 -37h3q18 0 30 26q12 28 34 25q13 206 13 516v45q-1 238 -1 373.5t1 169.5l-39 68q-25 18 -56 18q-25 0 -70.5 -15.5t-66.5 -15.5q-23 0 -39 13q-6 -12 -25.5 -21.5t-23.5 -17.5q37 -51 37 -56q0 -14 -14 -28 l-13 16q-20 -25 -20 -49q0 -31 41 -85t41 -83q0 -12 -4 -25l-19 13q6 -57 19 -174q-10 0 -29.5 19.5t-30.5 19.5q-14 0 -26 -29q4 -25 49 -188q35 -131 35 -216q0 -63 -17 -116l-49 39q16 -25 17 -45q0 -23 -34 -54.5t-34 -54.5zM6 1397l55 16q0 18 -7 58t-7 59q0 33 14 57 q0 41 37 41q14 0 51 -7t56 -7q39 0 59 24q55 -8 80 -49q17 -26 27 -96l-13 -164q-23 4 -51 4q-25 0 -74 -4t-73 -4q-104 0 -154 72zM74 90v45h16v-45h-16z" />
<glyph unicode="j" horiz-adv-x="628" d="M-27 -317q27 -82 103 -82q18 0 58 6t61 6q39 0 67 -16q52 71 127 71h2q14 0 27 -4q61 82 63 247t33 210q-37 27 -37 74q0 12 3 37.5t3 37.5q0 29 -14 45l45 41l-45 29l45 70q-14 6 -24.5 27.5t-20.5 29.5q29 35 29 74q0 6 -25 112q-5 25 -5 49q0 44 17 82l13 -18v22 q0 102 -29 381q-14 -2 -31 -2q-23 0 -71 8q-39 7 -65 7h-11q-35 10 -62 10q-80 0 -100 -94q-6 -33 -6 -164q0 -14 20.5 -39t20.5 -37t-12 -22q6 -14 -5.5 -41t-11.5 -33q0 -12 17 -19h-11q-18 -252 -18 -395q0 -205 29 -354q-10 -55 -19 -111q-12 -57 -41 -57q-5 0 -10 2 l-68 -12q-32 -26 -32 -67q0 -15 3 -38q3 -22 3 -32q0 -25 -15 -41zM123 1423q0 115 20 148q16 25 107 69q16 -10 67 -10h70q86 -4 86 -55q0 -11 -4 -27l29 -184q4 -2 4 -6q0 -8 -47 -25q-53 -18 -66 -37q-29 29 -98 29h-31.5h-32.5q-104 0 -104 98zM141 899l11 -18 q-2 10 -11 18zM180 938h29l12 -39z" />
<glyph unicode="k" horiz-adv-x="1126" d="M0 618l41 -10q10 25 10 43q0 8 -22 76l51 -29q16 12 16 31q0 8 -5 26.5t-5 26.5q0 20 23 31l-97 80q-1 11 -1 26q0 30 5 78q12 84 13 119q0 72 -29 121q29 33 29 104q0 25 -4.5 77t-4.5 77q0 139 130 143l194 -45v-31q0 -97 10 -235q12 -170 13 -246q0 -94 -13 -188 q10 -6 17 -6q8 0 19 15.5t24 15.5q10 0 26 -13q66 160 207 293q57 51 137 51q25 0 75 -5t75 -7q37 -23 37 -55q0 -29 -44 -84.5t-44 -77.5q-12 8 -21 8q-16 0 -22 -36t-15 -36q-6 0 -12 7q-10 -37 -82 -123q-63 -76 -63 -123q0 -49 49 -99q43 -43 112 -176q66 -125 121 -168 q-2 -44 37 -116q34 -62 34 -105q0 -6 -1 -12q-66 -35 -137 -41q-43 18 -88 23q-53 4 -97 18q-45 43 -133 215q-74 143 -164 184q-45 -55 -45 -157q0 -23 3 -67t3 -62q0 -115 -75 -142q-31 8 -70 8q-16 0 -45 -2t-41 -2q-98 0 -119 111q16 2 17 23q0 10 -6.5 36.5t-6.5 40.5 q0 37 49 37h5q-4 6 -24.5 21.5t-20.5 29.5q0 8 4 17q16 14 16 26t-16 25q27 -8 26 -39q-2 -41 15 -57q8 6 12 25.5t8 19.5q6 0 19 -17q32 50 32 111q0 49 -14 84q-29 6 -66 45q-31 33 -61 63z" />
<glyph unicode="l" horiz-adv-x="522" d="M0 647h57q-2 16 -24 37q-29 27 -33 33q63 6 63 61q0 16 -6 35q-53 57 -53 143q0 39 14.5 120t14.5 120q0 23 -4 41l28 -23q23 -4 29 15.5t12 36.5l-28 28q63 27 63 80q0 18 -6 47l-80 52q27 10 27 22q0 6 -17.5 24.5t-17.5 30.5q0 10 8 19q8 27 56.5 28.5t52.5 40.5 q18 -25 88 -36q77 -13 100 -33q4 -117 4 -260q0 -145 -5 -449.5t-5 -456.5q0 -209 6 -374q-27 -14 -63 -15q-16 0 -53.5 5.5t-55.5 5.5q-49 0 -86 -25l-39 57q27 20 27 47q0 23 -32 70t-32 74q0 23 19 45q8 -6 16 -34t25 -28q8 0 14 7.5t6 19.5q0 76 -72 131q2 2 5 2 q4 0 28.5 -26.5t44.5 -26.5q8 0 19 6q-3 68 -61 154q-55 80 -54 141v8z" />
<glyph unicode="m" horiz-adv-x="1662" d="M0 287q0 55 23 137q16 63 32 129q-33 53 -41 154q-6 82 -10 165l41 39l27 -39q18 20 18 35q0 18 -28.5 40t-28.5 36q0 12 12 25q0 -35 10 -39q27 0 27 12q0 4 -7 18.5t-7 20.5q0 14 26 16l-22 97h51l-68 106q18 -18 45 -18q20 0 65.5 14t63.5 14q72 0 125 -67 q49 63 189 63q6 0 137 -6q106 -35 215 -106q35 0 63.5 59t63.5 59q18 0 47 -12q6 43 66 43q10 0 57 -4q35 -4 51 0q6 -25 45 -33q24 -4 51 -6q63 -37 107 -141q29 -70 55 -142q-18 -242 -18 -452q0 -211 18 -402h-3l-43 -49q-23 -53 -50 -53q-20 0 -49 23q-18 14 -83 23 t-89 24q-33 22 -33 65q0 11 2 23q16 23 16 57q0 23 -9 67t-9 60q0 47 53 47q-49 45 -59 113q-4 59 -8 119q8 8 14 8q8 0 16.5 -21.5t14.5 -21.5q8 0 22 16q-59 51 -59 164q0 14 2 43v39q0 74 -27 104q-35 45 -131 45q-80 -133 -80 -321q0 -68 13.5 -204t13.5 -204 q0 -123 -31 -217q-46 -25 -112 -25q-15 0 -31 1q-40 3 -70 3q-45 0 -67 -7q-74 74 -74 116q0 14 6 31q-12 35 -12 78q0 51 26.5 167.5t26.5 176.5q0 51 -14 96q0 6 8 56.5t8 84.5q0 92 -55 127q2 0 18 -2q12 0 19.5 2t13.5 13q-49 30 -97 30h-3q-57 0 -103 -43l-51 -122 v-512l41 -29q-23 -37 -29 -115q-6 -63 -12 -127h-127q-84 0 -131 -16q-16 27 -32.5 55.5t-47.5 28.5h80q-84 55 -84 168z" />
<glyph unicode="n" horiz-adv-x="1114" d="M-6 379q0 41 5 122t5 117q0 37 -4 66l39 -27q6 0 12 5q-25 119 -51 518q14 63 80 63q18 0 55 -6t55.5 -7t94.5 -30q52 -21 83 -21q8 0 15 1q8 39 82 50t94 48q12 1 25 1q145 0 334 -138q2 -119 14 -451q12 -287 12 -454q0 -94 -4 -179q-49 -39 -123 -39q-35 0 -92 11 l-70 86l41 22q-2 33 -55 109q-44 61 -44 112q0 6 1 13q25 217 25 331q0 72 -7 136q20 16 21 32q0 18 -46 61.5t-44 72.5q-23 -16 -66 -17q-70 0 -69 0q-76 -141 -76 -344q0 -90 35 -369l-45 -24q28 -70 28 -125q0 -61 -28 -109q-10 2 -21 2q-25 0 -68.5 -10t-58.5 -10 q-8 0 -12 2q-45 0 -92 47l-74 78l41 12q-47 94 -47 242z" />
<glyph unicode="o" horiz-adv-x="1136" d="M0 602q2 -25 23.5 -93.5t21.5 -107.5q0 -37 -16 -65q72 -186 288 -320q36 -28 101 -28h4q27 0 96 8q46 4 76 4h18q20 20 90 41.5t101 44.5q6 8 61 76q41 49 41 84q0 10 -4 20q80 172 80 371q0 139 -39 295q4 16 4 35q0 66 -57 141q-23 27 -115 119q-37 -6 -61 4 q-35 12 -31 47q-31 -4 -70 -4q-29 0 -86 3t-86 3q-133 0 -221 -53q-39 -53 -47 -150q-6 -104 -33 -145q-2 2 -16 26q-10 16 -25 17q-8 0 -16 -4l45 -70q-37 -178 -127 -299zM346 793q6 10 39 125q20 76 72 100q12 4 24 4q31 0 59.5 -24.5t55.5 -49.5q0 -74 27.5 -223.5 t27.5 -220.5q0 -121 -55 -209q-20 4 -47 -8.5t-23 -32.5q-80 35 -92 41q-43 29 -57 82q-16 76 -31 416z" />
<glyph unicode="p" horiz-adv-x="1167" d="M0 1087q0 -43 13.5 -141t13.5 -145t-11 -86q-2 -23 -2 -47q0 -70 32 -235q30 -155 30 -239v-10l-60 23q-8 -29 34 -45.5t42 -40.5q0 -10 -4 -25l-82 31q6 -20 49 -45q35 -23 33 -55h-59q0 -158 28 -392l299 13q31 45 31 100q0 37 -18.5 108.5t-18.5 108.5q0 51 29 90 q168 -55 260 -55q90 0 147 45q5 -1 11 -1q35 0 65 46q45 72 53 78q6 43 48 164q35 100 34 174l11 -19q-6 307 -17 383q-32 232 -145 365q-109 53 -230 53q-90 0 -260 -43q-35 31 -123 31q-133 -2 -135 -2q-98 -49 -98 -187zM373 633q0 215 63 362q16 2 31 2q49 0 121 -43 q53 -92 53 -219q0 -33 -4 -101.5t-4 -103.5q0 -34 2 -65q-14 -16 -53 -113q-29 -67 -79 -67h-1q-23 0 -53 10q-76 111 -76 338z" />
<glyph unicode="q" horiz-adv-x="1181" d="M4 664q0 -106 55 -170l29 47q27 -27 53 -54q14 -16 58 -16q-16 -18 -31 -96q-10 -57 -62 -70v-12q0 -41 24 -85q28 -50 56 -99q133 -109 289 -109q45 0 86 10q-2 10 -2 19q0 20 33 23t39 28q41 -43 41 -107q0 -23 -4 -61q-8 -47 -9 -64h-18q43 -78 43 -135q0 -31 -14 -49 q78 -12 168 -12t168 12q-7 167 -7 424q0 129 2 281q5 418 5 607v89q-14 18 -15 43q0 16 8.5 47t8.5 45q0 43 -72 55q-10 0 -50 5.5t-63 5.5q-65 0 -65 -40q0 -15 10 -40l-29 28v-28q-7 -1 -14 -1q-53 0 -150 48q-119 57 -178 57q-23 0 -43 -6q-25 -18 -57 -29 q-16 -4 -41 -41q-8 -12 -41 -18q-51 -8 -57 -10q-4 -12 6 -26.5t10 -24.5l-57 -19q6 -10 6 -22q0 -25 -50 -93.5t-55 -113.5v-16q0 -34 -6 -93q-8 -80 -8 -114zM180 174q0 11 6 21l58 -58q-2 -6 -13 -6q-51 0 -51 43zM365 571q0 68 16 183q20 145 25 202q23 41 81 41 q8 0 27 -2h27q39 0 61 13q70 -61 70 -142q0 -35 -15.5 -102.5t-15.5 -101.5q0 -68 41 -121q-8 0 -20.5 -13.5t-20.5 -15.5q2 -25 12 -70q6 -33 6 -69q-39 -2 -97 -41t-85 -39q-37 0 -71 51q-41 109 -41 227z" />
<glyph unicode="r" horiz-adv-x="796" d="M-2 145q0 39 12 78q16 -14 33 -14q14 0 66 61q-2 12 -51.5 14.5t-57.5 37.5q2 2 29 -13q12 8 12 31q-2 35 -2 39l-39 29q33 25 38 93t30 85q0 14 -15 28q-23 20 -24 25l39 16l-68 70q63 18 59 18q20 0 37 -18q-45 82 -55 233q-12 188 -31 250q80 63 207 64 q47 0 146.5 -11.5t146.5 -11.5q88 0 152 29l18 -277q-10 4 -18 5q-16 0 -24.5 -28t-16.5 -34q-23 16 -50 17q-20 0 -59 -13.5t-57 -15.5q-45 0 -70 -76q-31 -98 -51 -119q37 -72 37 -123q0 -33 -15 -86l-12 19q-1 -18 -1 -36q0 -81 30 -149q-29 -39 -37 -139 q-12 -121 -23 -151q-25 -72 -94 -72q-35 0 -82 16q-12 23 -26 23t-31 -23q-82 25 -82 129z" />
<glyph unicode="s" horiz-adv-x="1091" d="M0 879q90 -180 117 -215q82 -109 200 -109q39 -39 119 -47q96 -10 117 -21q55 -27 61 -112q-43 -74 -73 -96q-37 -25 -123 -25q-51 16 -81 71.5t-29 118.5l-181 17h-9q-48 1 -60 -61q-12 -68 -31 -68q-6 0 -15 2q39 -33 42 -100.5t28 -96.5q121 -137 389 -137 q145 0 281 45q72 33 122 125q35 78 70 154v20q0 126 -70 281q-31 12 -235 125q-135 76 -252 81q-33 27 -33 64v-1q2 0 23 95q12 25 52 32t46 19q6 -4 15.5 -17t21.5 -13t33 8q20 -12 24 -37q-2 14 -2 -51q29 -74 142 -74q25 0 66.5 4t58.5 4q18 0 28 -4q45 51 45 113 q0 53 -45 155q-113 145 -274 146q-31 0 -62 -8q-14 1 -27 1q-26 0 -50 -5q-43 -10 -54 -11q-31 0 -78 27l19 -29q-18 -31 -49 -30q-10 0 -27.5 4t-21.5 4l41 -88l-41 -29l-39 66q2 -8 2 -13q0 -25 -60 -37q-70 -12 -84 -28q39 -31 39 -64q0 -18 -14 -35q-8 10 -17.5 21.5 t-23.5 7.5q-8 -39 -14 -78q-8 -47 -27 -71zM180 1208l19 -32q-4 14 -19 32zM584 502l69 -41v-45z" />
<glyph unicode="t" horiz-adv-x="843" d="M0 1235q43 45 136 60.5t130 52.5l-84 100q-8 0 33 -26.5t68 -26.5q20 18 20 37q0 23 -36 63.5t-36 65.5q0 23 23 45q14 2 86 20q55 12 86 12q95 0 95 -114q0 -9 -1 -19l-12 -200q25 -14 84 -15q61 0 88 -14q25 -35 25 -100q0 -37 -15 -66q4 -8 4 -16q0 -14 -20.5 -30.5 t-24.5 -23.5h-112q-18 -248 -19 -405q0 -213 31 -334q16 10 26 10t20.5 -18.5t20.5 -18.5t21 9q6 -14 37 -68q22 -41 22 -75q0 -21 -6 -40q-12 -74 -67 -92q-25 -8 -71 -8q-23 0 -52 2q-37 3 -64 3q-37 0 -57 -5q-8 6 -92 29q-66 16 -66 55q0 8 4 16q-59 63 -59 158 q0 45 19.5 139.5t19.5 134.5q0 55 -23 95q27 18 27 84q0 29 -6 74.5t-6 54.5q0 12 4 12v14q0 125 -70 189q-100 94 -131 180z" />
<glyph unicode="u" horiz-adv-x="1120" d="M0 944q0 -53 14.5 -170t14.5 -176q0 -45 -6 -84q10 -2 20 16.5t20 24.5q6 -20 54 -66q41 -39 41 -69q0 -16 -8 -33q-59 -47 -58 -98l-80 47q23 -35 51 -152q18 -86 99 -127q-8 14 13.5 33t43.5 37l70 -127q90 16 180 35q100 23 166 63q39 -88 131 -88q29 0 80 9.5t67 9.5 q39 682 39 792v17q0 232 -26 424q-33 16 -95 16h-86q-49 -16 -55 -23q-18 -12 -14 -47q-12 -16 -23 -16q-8 0 -18 20.5t-14 20.5q-6 0 -11.5 -12.5t-5.5 -24.5q0 -29 21.5 -96.5t21.5 -102.5q0 -31 -12 -55l-17 19q-12 -76 -12 -326q0 -205 -39 -318q-53 -34 -109 -34h-3 q-68 0 -97 53q-1 18 -1 134t1 329q0 281 -28 463q-117 -25 -209 -25q27 -39 26 -39q0 -10 -14 -18l-29 28q4 -14 5 -30q-1 -20 -17 -64q-13 -36 -13 -62q0 -6 1 -12q-8 12 -28.5 22.5t-28.5 18.5q-23 -55 -23 -137zM92 209q2 0 29 -12q-1 -35 -17 -47z" />
<glyph unicode="v" horiz-adv-x="1103" d="M0 1208q31 55 92 56q23 0 74 -11.5t74 -11.5q25 0 41 8q113 -219 170 -645q8 -2 24.5 -15.5t24.5 -13.5q12 0 22 17q2 14 -8 27.5t-22 25.5q63 29 63 103q0 18 -5 60t-5 62q0 25 6 45q29 33 39 125q14 109 28 146q33 74 115 92q66 -10 131 -18q80 -17 109 -64 q-49 -166 -117 -469q-72 -332 -113 -475q-8 4 -41 -29l31 -28q-25 -63 -47 -127q-31 -68 -88 -68h-6q-37 20 -94 20q-16 0 -49 -2t-50 -2q-92 0 -129 66q-18 104 -85.5 308t-84.5 315l82 10q-18 76 -71 112l18 -82q-41 16 -48 84t-52 86q35 16 34 37q0 12 -13 35t-13 35 q0 23 33 45q-53 0 -54 31q0 8 6.5 31.5t6.5 35.5q0 29 -29 43z" />
<glyph unicode="w" horiz-adv-x="1710" d="M0 1196q51 35 168 41h168q0 -2 37 -141q27 -96 61 -148q-16 -37 -16 -78q0 -53 28 -135q35 -96 39 -123q55 80 56 197q0 59 -15 123q14 -16 23 -17q10 0 19.5 31t27.5 25l-12 69q14 0 28 17q25 27 29 30q0 4 -16 37q-12 25 -13 39q0 18 13 33q14 4 23 -7l18 -22 q-1 9 -1 17q0 66 70 94q29 -12 74 -12h43q31 2 43 2q97 -1 117 -101q10 -166 98 -565q10 -2 20 -2q31 0 50 25q-2 4 0 32q2 18 -13 25h70q-33 84 -33 186q0 121 62 340q10 -20 41 -51q-6 16 -7 31q0 70 117 78q6 -2 96 -17q63 -10 64 -51q0 -18 -10 -41q-61 -274 -123 -551 q-68 -315 -96 -549q-135 -51 -234 -51q-51 0 -102 10h-3q-45 0 -59 58q-14 60 -49 65q16 37 17 84q0 35 -46 211l70 41q-31 59 -61 121q-33 58 -86 58q-7 0 -15 -1q-6 -246 -139 -653q-30 -1 -58 -1q-258 0 -345 99q12 23 12 47q0 49 -53 121q-1 9 -1 20q0 43 13 110 q16 83 16 118l13 -10q10 2 12 12q2 6 0 19q-2 18 -2 20q-39 33 -55 63q-29 45 -54 76l29 -22q-12 14 -28.5 96t-53.5 111q10 2 25.5 -3.5t19.5 -5.5q14 0 25 21q-90 125 -103 143q-45 80 -53 162z" />
<glyph unicode="x" horiz-adv-x="1073" d="M0 139q31 123 113 262q113 193 139 246q-53 111 -154 350l-16 -16q-2 39 -42 109.5t-40 103.5q0 23 12 43q31 27 105 27q18 0 76 -2q45 -2 69 -2q53 -31 103 -117q78 -135 84 -146q49 4 87 81q36 71 71 71h5q-10 20 -10 41q0 47 57 88q8 -4 25 -4q12 0 55 4t68 4 q113 0 133 -61q-59 -121 -170 -381l-16 18q-4 -31 -52.5 -91t-48.5 -101q0 -37 29 -76q184 -326 258 -543q-31 -35 -70 -35q-23 0 -65.5 14.5t-61.5 14.5q-37 0 -61 -41q-66 31 -90 113q-18 70 -35 139q-29 76 -108 98q-29 -33 -66 -123q-39 -98 -64 -133q-45 -61 -108 -65 q-8 -4 -16 -4q-18 0 -56 26q-45 31 -57 37l57 29q-14 27 -39 26q-10 0 -33.5 -8t-35.5 -8q-16 0 -31 12z" />
<glyph unicode="y" horiz-adv-x="1091" d="M12 1094q43 13 43 69q0 11 -2 23l-41 28q29 57 80 58q12 0 45 -6t51 -6q41 0 74 26q74 -4 80 -88q6 -100 43 -123q10 -84 21 -166q10 -90 49 -153l-13 10q0 -74 31 -152q51 4 62 101q14 121 36 151q-12 29 -12 60q0 43 32 119.5t32 117.5q0 27 -11 51q25 72 111 72 q37 0 125 -16q75 -15 111 -15h4q-31 -227 -117 -546q-76 -262 -152 -525q-4 -14 8 -24q20 -23 21 -23q-57 -47 -66 -157q-12 -121 -45 -162q-31 -6 -55 -64q-27 -63 -55 -76q-53 -47 -152 -47q-39 0 -98 9q-72 8 -88 8q-55 23 -68 104q-16 96 -43 123q10 37 56 37 q16 0 52 -5t54 -5q61 0 78 55q8 29 8 61q0 51 -27 154q-27 111 -28 164q-33 141 -94 209q-20 33 -21 69q0 16 6 52t6 55q0 39 -20 76q10 -4 16 -4q14 0 16.5 20.5t8.5 24.5q-55 35 -88 108.5t-64 147.5z" />
<glyph unicode="z" horiz-adv-x="1071" d="M0 100q0 25 12.5 83.5t12.5 88.5q0 31 -11 56q43 125 160 217q100 72 203 143q-10 14 -48 16.5t-38 24.5q0 8 4 19l29 -31q-8 20 -9 39q0 41 49.5 94t49.5 76q0 27 -37 55h-154q-88 2 -127 33q-43 33 -43 105q0 14 2 30q0 10 -6 40t-6 48q29 4 199 10q121 4 192 31 q25 -6 62 -6q29 0 95 5t103 5q158 0 213 -92q-12 -20 -12 -57v-33q2 -23 2 -35q0 -78 -43 -125q-100 -111 -215 -283q-18 -29 -193 -307q41 -43 105 -43q35 0 104 21v10q25 -10 107 -14q76 -4 106 -21q40 -25 40 -83q0 -10 -1 -21q29 -49 29 -84q0 -74 -129 -92 q-96 -12 -193 -23q-225 37 -321 37q-92 0 -168 -19h-11q-114 0 -114 82z" />
<glyph unicode="{" horiz-adv-x="661" d="M0 1544q0 78 84 76q2 -23 46 -6.5t58 -22.5q20 39 52 39q27 0 69 -31q59 -43 66 -45q10 2 10 37q14 10 27 11q16 0 44.5 -20.5t45.5 -20.5q8 0 16 4q27 -33 27 -82q0 -59 -39 -144q-18 -4 -62 2q-49 8 -67 9q-59 0 -68 -50q8 -150 8 -333q0 -131 -6 -393.5t-6 -393.5 q0 -121 4 -225q25 -39 94 -43q90 -4 105 -12q47 -20 37 -105q4 -14 4 -28q0 -76 -70 -103q-119 8 -237 17q-106 12 -224 77q-12 209 -12 406q0 199 12 411q2 -2 17 -26q8 -16 20 -17q8 0 19 5q8 12 8 22q0 12 -35 33.5t-29 48.5q12 -14 21 -14q6 0 15 23.5t30 19.5 q-29 6 -29 37q0 6 2 16v14q0 31 -39 25q2 27 13 26q4 0 17 -8t20 -8q10 0 16 12l-66 56l82 -29q12 10 13 33q-2 29 -2 35q-27 14 -52 30q-31 20 -41 52l56 10q-59 55 -60 137q0 33 10.5 95.5t10.5 92.5q0 57 -29 99q4 12 4 30t-5 59.5t-5 59.5z" />
<glyph unicode="|" horiz-adv-x="548" d="M0 176q8 4 23 -10q-12 55 -13 137q0 29 2 85t2 83q0 76 -14 127q23 10 37 57q10 33 53 27q-27 35 -27 82q0 23 8.5 68t8.5 67q0 66 -57 109l28 -13q33 244 33 320q0 158 -61 284q29 0 66.5 12.5t55.5 12.5q33 0 72 -25l10 39q23 -25 82 -32q45 -6 56 -54v-753 q0 -455 16 -760q-154 -47 -221 -39q-12 10 -69.5 16.5t-78.5 34.5z" />
<glyph unicode="}" horiz-adv-x="727" d="M6 1462q12 4 29 -10q14 6 14 16q0 8 -26 33h51q-12 31 -51 84l38 -16q10 6 8.5 26.5t20.5 28.5q37 -10 84 -10q41 0 122 11t120 11q74 1 125 -28q-14 -614 16 -1536q-31 -31 -31 -95q0 -29 9.5 -92t9.5 -94q0 -102 -94 -121h-248q-156 8 -180 111q-6 94 73 139l156 62 q4 25 -6 28q-2 2 -23 0q-14 0 -16 10q2 43 18 181q14 106 15 174q0 45 -7 86q12 27 48 26h15h15q43 0 45 52q-45 74 -45 145q0 23 6 43q-12 -10 -28 -10q-33 0 -59.5 38t-22.5 79q14 16 14 34v13q-2 8 -2 10q0 23 33 37l-45 39l55 16l-29 68l68 -56q4 43 -18 113 q-27 86 -31 127q12 41 12 68q0 57 -63 71q-59 6 -119 12q-68 14 -76 76z" />
<glyph unicode="&#xa1;" horiz-adv-x="536" d="M-6 154q20 0 29 -17q20 53 8 139q-16 127 -17 140q0 51 21 86l-41 41l41 10q2 133 6 268q4 154 22 248q-14 131 87 139q41 0 83 2q43 0 68 -43q14 -33 14 -65q0 -43 -38.5 -115t-38.5 -117q0 -18 6 -39q14 -4 24 -4q23 0 23 29q2 39 10 45q70 -127 80 -414v-460 q-188 -35 -221 -35q-66 0 -109 22l-28 41zM10 1597q45 0 45 25q0 8 -4 14q18 -6 43 -6q27 0 85.5 11.5t86.5 11.5q78 0 115 -68q-10 -31 -10 -72q0 -18 3 -53t3 -51q0 -90 -88 -131q-49 10 -92 12q-29 2 -74 2q-65 -2 -88 -2q-25 231 -25 307z" />
<glyph unicode="&#xa2;" horiz-adv-x="1034" d="M0 504l39 -49q23 -29 53 -27q-10 -20 -10 -41q0 -31 25.5 -89t25.5 -91q0 -14 -4 -27q31 -53 100 -86q25 -12 121 -43q68 -23 82 -92q16 -78 37 -92l49 16q-4 20 -4 39q0 92 84 139l156 74q86 53 88 164q41 12 41 70q0 10 -4 55q-2 35 0 53q-4 6 -28 15.5t-24 23.5 q0 6 4 14q-23 -12 -47 -12q-18 0 -67 14.5t-80 8.5q6 -33 -29 -39q-45 -10 -53 -25q-20 45 -20 101q0 33 12 118q12 76 8 121l43 -26q18 4 92 -13q82 -18 121 -18q90 0 94 78q-14 35 -24 129q-8 76 -39 108q-123 135 -232 142q-53 8 -65 59q-6 45 -11.5 88t-41.5 35 q-41 -29 -80 -58q-41 -35 -35 -88q-61 0 -148 -63q-68 -51 -137 -103q-18 -25 -6 -81q10 -49 -23 -76l-10 16q-2 -6 -2 -12q0 -10 13.5 -29.5t13.5 -27.5q0 -12 -15 -23q-2 2 -18 20.5t-29 18.5q0 -6 -2 -35q-2 -20 0 -31q2 -16 13 -26q41 31 65 -10q-31 -74 -76 -66l37 -53 q-18 -4 -18 -19q0 4 14 -47q10 -31 -12 -49q-14 14 -21 12q35 -31 35 -59q0 -18 -14 -33zM324 504q6 94 14 188q10 119 31 201q2 23 8 37q-2 -10 -8 -37q-4 -45 34.5 -116.5t38.5 -98.5q1 -47 -65 -82q47 -109 39 -248q-45 0 -66 27q4 51 -26 129zM555 412q23 0 39 29.5 t33 29.5q8 0 20 -4q-51 -14 -51 -90q0 -18 2 -41q-43 6 -43 76z" />
<glyph unicode="&#xa3;" horiz-adv-x="1157" d="M-16 807q0 51 30 102q55 8 56 56q0 16 -11 32q-47 57 -47 150q0 12 19 160l12 -19q-8 41 14 84q23 37 56 58l28 -31q12 25 15 61q2 27 26 56l101 12l-13 12q14 57 76 57h20.5h18.5q53 0 66 41q41 -10 237 -36q139 -19 211 -62q4 -43 72 -149q61 -100 61 -166 q0 -31 -10 -60q-8 0 -31.5 4.5t-32.5 4.5q-20 0 -20 -19q0 -8 2 -18q-23 -6 -49 -7q-84 0 -151.5 51.5t-67.5 125.5v51q-29 -4 -84 6q-68 12 -90 12q-80 0 -105 -88q-6 -29 -6 -59q0 -160 117 -301q27 -4 57 -4q29 0 79 3t75 3q106 0 168 -62q4 -16 4 -34q0 -74 -74 -175 q-33 31 -100 29q-104 -2 -111 0q-4 -90 -53 -188q-6 -12 -98 -162q195 -84 286 -84q102 0 162 72q14 4 27 4q61 0 80 -103q27 -133 45 -157q-12 4 -25 4q-55 0 -74 -56q-88 -31 -223 -30q-68 0 -225 12q-55 61 -142 61q-37 0 -111.5 -15t-107.5 -15q-84 0 -129 67 q20 12 21 29q0 10 -17.5 39t-17.5 43q0 16 14 31q8 4 37 39q23 25 41 24q10 0 21 -6q2 51 67.5 142t65.5 141q0 49 -45 96q-25 -18 -47 -19q-18 0 -57.5 24t-65.5 19q-47 43 -47 107z" />
<glyph unicode="&#xa4;" horiz-adv-x="1146" d="M0 420q0 -37 35 -68q66 -61 65 -61q12 -6 23 -6q23 0 49 22l33 33q8 -8 45 -14.5t37 -20.5q0 -6 -6 -14q45 -20 104 -21q37 0 112.5 10.5t110.5 10.5q39 43 88 43q29 0 88.5 -22.5t87.5 -22.5q55 0 93 67q25 25 24 47q0 23 -42 60t-42 63q0 23 21 49l12 -12 q39 104 53 225q-23 152 -76 234q-6 16 -6 31q0 63 82 63l-26 92q-59 -33 -125 -32q-70 0 -210.5 51t-215.5 51q-96 0 -183 -59q-12 12 -55 14q-27 0 -26 41l-87 10q-47 -154 -49 -410q0 -346 -6 -413q-8 -23 -8 -41zM236 772q0 49 36 100q59 88 64 97q76 29 164 28 q195 0 256 -143q-37 -27 -60 -106q-33 -115 -37 -127q-31 -61 -92 -62q-17 0 -35 4q-8 -29 -47 -28q-27 0 -110 28q-104 49 -131 160q-8 25 -8 49z" />
<glyph unicode="&#xad;" d="M-20 621l26 -27q20 72 21 119q0 47 -21 118q111 41 256 41q66 0 205 -11t213 -11q129 0 235 27q90 -63 91 -191q0 -53 -19 -133q-12 -63 -26 -127q-57 8 -127 8q-76 0 -257.5 -14t-281.5 -14q-139 0 -254 20z" />
<glyph unicode="&#xbf;" horiz-adv-x="1030" d="M14 375q0 29 6.5 82t6.5 86q0 29 -4 57q0 82 71 156q68 61 135 123q78 80 86 170q45 106 183 106q49 0 104 -16q43 -12 43 -78q0 -18 -4 -56t-4 -57q0 -20 4 -35q-49 -92 -166 -235q-137 -160 -160 -197q20 -61 41 -121q23 -68 82 -98q23 -18 43 -18q27 0 64 43 q47 53 57 59q-2 14 -2 27q0 33 27.5 83t25.5 93q63 0 129 2q74 -2 101 -57q-12 -18 -13 -37q0 -23 23 -54q27 -39 29 -45q-27 -102 -43 -135q-37 -72 -103 -78q4 -14 4 -26q0 -41 -67 -62q-88 -25 -111 -47q-63 -10 -123 -10q-343 0 -456 291q-8 41 -9 84zM305 1454 q14 20 33 86q10 43 61 59q86 -14 107 -12l29 51q37 -10 75 -20q49 -18 70 -57q4 -18 4 -41q0 -92 -43 -220q-43 -29 -104 -28q-35 0 -97 12q-73 14 -96 16q12 16 12 29q0 14 -19.5 34.5t-19.5 29.5q0 16 27 32z" />
<glyph unicode="&#xc4;" horiz-adv-x="1353" d="M0 106q25 -59 80 -77q31 -12 110.5 -13.5t120.5 -15.5q-8 31 19 43q18 6 37 14q8 147 79 299q45 2 138 13q84 10 129 10q74 0 129 -23q-2 8 -2 -53q0 -39 30 -43q0 33 11 39q2 -14 0 -127q0 -68 28 -133q20 4 45 4q100 0 187 -43q33 45 71 45q12 0 25 -6 q-268 936 -383 1452q-12 55 -54 83t-83 52l-23 -39q-70 35 -139 35q-82 0 -147 -45q-72 -221 -142 -444q-84 -262 -90 -455q-55 -74 -88 -272q-35 -209 -88 -300zM289 1915q14 45 82 45q20 0 62 -5t61 -5q23 0 36 4l41 -123q-27 -16 -26 -102q-2 -74 -51 -74q-23 0 -60 12 q-12 20 -26 21q-16 0 -29 -21q-10 23 -14.5 87.5t-14.5 92.5q-16 51 -61 68zM504 694q31 168 106 475q23 -10 36 -77.5t48 -85.5q-12 -25 -12 -58q0 -31 20.5 -101.5t20.5 -107.5q0 -51 -29 -90q-12 16 -32 17q-16 0 -51.5 -13.5t-51.5 -13.5q-39 0 -55 55zM672 1901 q0 45 45 65q35 2 59 2q178 1 172 -108q-6 -23 -6 -56v-30q2 -23 2 -31q0 -82 -90 -76q-57 2 -115 2q-61 12 -61 66q12 20 12 47q0 20 -9 60t-9 59z" />
<glyph unicode="&#xc5;" horiz-adv-x="1345" d="M0 84q18 -37 61 -42t52 -26q35 -16 67 -16q25 0 73 15.5t77 13.5q37 37 49 114q18 127 18 129q49 43 146 43q18 0 84 -4q47 -4 71 0l119 -39q-2 -8 -2 -16q0 -23 21.5 -67t21.5 -66q0 -20 -12 -39q68 -68 96 -68q27 -18 55 -18q27 0 72 21.5t66 21.5q27 0 51 -25 q31 33 31 70q0 29 -27 84t-27 84q1 24 13 47q-57 209 -181 582q-141 418 -190 585q-4 -12 -14 -12q-23 0 -41 31q14 53 72.5 102t62.5 84q-18 29 -31 115q-10 76 -49 106q-109 72 -227 72q-174 0 -248 -156q10 -131 22 -174q25 -78 103 -139q-78 -51 -111 -151 q-20 -92 -39 -187q-27 -109 -84 -166l12 -297q-14 -2 -27 12.5t-24 28.5q-6 -47 -4 -53q2 -12 27 -43l-51 -12q-41 -33 -41 -154l-27 29q6 -51 -20 -115q-31 -72 -31 -104q0 -25 10 -54q33 0 41 -10l-41 -28q33 -43 68 -58q-43 -68 -80 -67q-16 0 -33 16zM500 1718 q0 10 6 23q12 31 49 39q51 14 57 18q109 -12 125 -80l-106 -84q-18 20 -31 21q-14 0 -27 -21q0 25 -36.5 44.5t-36.5 39.5zM506 612q27 141 84 437q49 -59 94 -60q12 0 25 4v-92q-10 0 -21 -12q-16 -14 -18 -17q-4 -41 18 -106q25 -72 25 -100q-1 -29 -15 -54h-192z" />
<glyph unicode="&#xc6;" horiz-adv-x="1765" d="M0 115q12 -84 94 -84q18 0 62.5 5t66.5 5q27 0 49 -6q72 12 101 76q4 6 35 129q-4 61 38 79q6 2 86 15q49 8 52 41q14 -4 32 -4q20 0 59.5 9t55.5 9q33 0 55 -24q-4 -18 -38 -19q10 -12 29.5 -21.5t27.5 -17.5l-29 -28q2 -2 60 -62q39 -41 38 -74q0 -25 -18 -51 q-6 12 -14 12q-18 0 -37 -28q27 -2 70 -39t67 -37q12 0 27 8q72 25 164 25q49 0 149 -10.5t152 -10.5q88 0 157 23q49 31 49 90v20q-2 14 -2 21q1 45 21 74q-90 68 -268 77q-225 10 -287 29v340q59 8 250 12q154 2 237 29v53q2 27 -28 43q43 6 43 23q0 8 -16.5 27.5 t-16.5 27.5q0 12 31 19q-8 4 -43 45q-25 29 -50 28q-12 0 -28 -6q-205 -12 -338 29q-47 45 -47 135q0 14 18 164l475 12q16 78 17 146q0 88 -29 137q-39 27 -131 26q-133 0 -139 2q-66 2 -183.5 -27.5t-177.5 -29.5q-33 0 -65 6l-68 51q-6 0 -56 -17t-79 -11q16 35 16 28 q-23 4 -48 -4t-25 -22q0 -6 6 -13q-86 -74 -221 -368q-10 -45 -68 -201q-47 -127 -51 -207q-35 16 -29 17l29 -29q-59 -29 -80 -88q-12 -39 -12 -117v-16q0 -78 -15 -113q-20 -55 -86 -74q33 -33 29 -57q-41 -8 -41 -65q0 -8 2 -27v-25q0 -51 -39 -51q-12 0 -31 4l27 -39 q0 -6 -4 -12q-4 -16 -39 -16zM584 659q6 92 67 263q86 242 97 280q29 -41 28 -94q0 -41 -21.5 -108.5t-21.5 -94.5t21.5 -87t21.5 -91q0 -47 -41 -80z" />
<glyph unicode="&#xcb;" horiz-adv-x="1056" d="M0 1403q0 68 10 129q51 6 66 33q12 37 24 73q66 -37 121 -36q29 0 60 8q14 2 264 0q162 -2 260 28q16 -33 55 -39h68v-260q-86 -31 -262 -28q-270 2 -279 2q-10 -90 -10 -156q0 -94 22 -156q70 -18 176 -6q152 16 175 17q68 0 122 -21q16 -55 17 -121v-127 q-49 -59 -160 -59q-47 0 -140 13.5t-128 13.5q-80 0 -101 -45q-25 -57 27 -193q-29 -12 -29 -31q0 -8 9.5 -29.5t9.5 -33.5t-6 -25q68 -14 168 -14h63q41 2 62 2q164 0 264 -43q-2 -35 12 -91t14 -79q0 -49 -43 -84q-49 10 -98 10q-117 0 -211 -55q-27 29 -59 29 q-10 0 -30.5 -4.5t-31.5 -4.5q-31 0 -55 25q-35 -12 -80 -12q-23 0 -69 4t-68 4q-45 0 -80 -12q-31 18 -57.5 33.5t-38.5 50.5q29 362 0 618l16 -10q8 55 8 115q0 96 -28.5 283.5t-28.5 283.5zM145 1915q14 45 82 45q20 0 62.5 -5t60.5 -5q23 0 37 4l41 -123 q-27 -16 -27 -102q-2 -74 -51 -74q-23 0 -59 12q-12 20 -27 21q-16 0 -28 -21q-10 23 -14.5 87.5t-14.5 92.5q-16 51 -62 68zM528 1901q0 45 45 65q35 2 60 2q178 1 172 -108q-6 -23 -6 -56v-30q2 -23 2 -31q0 -82 -90 -76q-57 2 -115 2q-61 12 -61 66q12 20 12 47 q0 20 -9.5 60t-9.5 59z" />
<glyph unicode="&#xd6;" horiz-adv-x="1241" d="M0 868q-2 -43 52 -108.5t52 -100.5q-33 -2 -18.5 -28.5t-7.5 -36.5q-4 10 -39 10l82 -65q12 -33 12 -58t-12 -57q-6 2 -18.5 14.5t-24.5 12.5q-4 -96 30.5 -192.5t100.5 -154.5q12 6 24 7q18 0 57.5 -26t61.5 -26q23 0 43 19q6 -39 49 -39q6 0 21 2h22q47 0 52 -41 q190 47 272 86q147 70 205 188q18 27 22 115q2 78 45 111q0 63 3.5 193t3.5 198q0 231 -35 389q-39 4 -39 45q0 76 0 70q-182 233 -301 225h-152q-80 0 -129 18q-31 -33 -110 -59q-94 -29 -121 -47q-61 -37 -72 -109q-35 2 -47 -67q-14 -86 -18 -92l28 -23q-61 -57 -65 -186 q-4 -145 -29 -187zM195 1794q0 12 14 25l16 -11q12 12 13 41v21q-2 14 -2 22q0 39 28 47q90 12 119 13q125 0 133 -94q-20 -29 -20 -78q0 -12 2 -35v-31q0 -61 -60 -61q-23 0 -53 6l-90 8t-70 37q12 14 13 27q0 14 -21.5 33.5t-21.5 29.5zM369 668v399q2 6 39 147 q27 96 81 144l170 -12q18 -137 78 -226q6 -27 6 -61q0 -35 -9 -108.5t-9 -108.5q0 -96 55 -144q-25 -43 -51.5 -160.5t-56.5 -164.5q-45 -74 -140 -74q-20 0 -43 4q-113 125 -120 365zM621 1901q2 2 22.5 4t20.5 16q0 8 -5 18q31 27 76 27q57 0 104.5 -41t47.5 -104 q-1 -37 -19 -78q6 -12 6 -23q0 -27 -26.5 -46t-56.5 -15h-95q-53 4 -63 55q27 25 26 76q0 68 -38 111z" />
<glyph unicode="&#xd8;" horiz-adv-x="1193" d="M0 1034q39 -31 39 -86q0 -18 -5 -56t-5 -56q0 -59 45 -97q-41 -59 -47 -80q-2 -6 -17 -81q-4 -23 -4 -46q0 -80 69.5 -207.5t69.5 -201.5q0 -35 -10 -72q47 -53 92 -53q10 0 23 2l-17 16q68 51 195 52q31 0 92.5 -4.5t91.5 -4.5q115 0 185 39q119 68 176 232 q25 72 61 284q12 66 13 138q0 131 -56.5 387t-56.5 383q0 32 2 65q-12 29 -51 33q-49 6 -64 18q-51 -84 -176 -84q-27 0 -79 4.5t-77 4.5q-109 0 -151 -66l-27 37q-147 -80 -202 -172q-20 -33 -22.5 -128t-25.5 -136l-34 14q23 -35 22 -37q0 -6 -2 -14q-10 -10 -22.5 -19.5 t-24.5 -7.5zM358 649v262q2 170 43 248q-10 20 -10 37q0 31 33 64q31 25 59 51l70 -11q43 -6 55 -36q-45 -49 -45 -95q0 -47 71 -127.5t71 -132.5q0 -31 -19 -61q33 -16 43 -53t21 -72q-19 -43 -37 -172q-37 -29 -56 -131q-14 -88 -86 -109q-12 10 -39 11q-10 0 -32.5 -2.5 t-32.5 -2.5q-49 0 -49 45q0 12 4 30t43 83q35 57 35 90q0 35 -37 60q-29 39 -68 39q-20 0 -37 -15z" />
<glyph unicode="&#xdc;" horiz-adv-x="1265" d="M0 903l16 -16q10 111 19 223q12 131 51 211q-29 8 -29 25q0 6 7.5 21t7.5 24q0 16 -31 28l45 219l301 -41q18 -152 19 -319q0 -106 -10.5 -320.5t-10.5 -334.5q0 -78 2 -154q6 -10 33 -113q18 -70 65 -106q131 -14 158 29q55 14 55 81q0 14 -4 27q12 4 28.5 -11.5 t22.5 -15.5q10 0 19 17q4 23 -17.5 50.5t-23.5 41.5l82 -23q-14 12 -14 37q0 8 3 30t3 32q0 51 -62 63q35 35 35 92t-35 93l17 -17q16 10 16 27q0 8 -6 23.5t-6 19.5q0 16 37 16q-20 18 -45 40t-25 52q-29 98 -29 250q0 174 41 434q43 -14 103 -14q27 0 79 4t78 4 q35 0 64 -6l41 -127q0 -41 -10.5 -123t-10.5 -121q0 -66 21 -114l-17 12q-8 -104 29 -238q-45 -174 -45 -264q0 -63 16 -125l17 13q2 -47 -16.5 -104.5t-18.5 -92.5q0 -25 6 -53q-29 -35 -55 -68q-33 -43 -27 -69q-57 -49 -117 -99q-70 -57 -108 -53q-123 -20 -221 -20 q-213 0 -346 102l-127 178h16q-10 12 -14 90q-2 47 -31 68q18 23 18 63q0 25 -11 79t-11 79q0 63 61 84l-41 25q29 0 41 16q-27 8 -56.5 50t-41.5 89zM195 1794q0 12 14 25l16 -11q12 12 13 41v21q-2 14 -2 22q0 39 28 47q90 12 119 13q125 0 133 -94q-20 -29 -20 -78 q0 -12 2 -35v-31q0 -61 -60 -61q-23 0 -53 6l-90 8t-70 37q12 14 13 27q0 14 -21.5 33.5t-21.5 29.5zM662 1901q2 2 22.5 4t20.5 16q0 8 -5 18q31 27 76 27q57 0 104.5 -41t47.5 -104q-1 -37 -19 -78q6 -12 6 -23q0 -27 -26.5 -46t-57.5 -15h-94q-53 4 -63 55q27 25 26 76 q0 68 -38 111z" />
<glyph unicode="&#xdf;" horiz-adv-x="1318" d="M0 176v-500q23 -29 88.5 -36t75.5 -17q29 -4 106 39q94 53 123 62q-27 238 -26 491q0 131 12 426q10 279 8 451q14 23 23 90q6 51 63 100q20 43 80 25q74 -23 125 10q16 10 37 10q31 0 71 -20q23 -12 43 -25l66 -174q-25 -80 -166 -133q-121 -47 -184 -37q0 -18 25.5 -45 t25.5 -39q0 -10 -14 -20q-23 -45 -23 -48q0 -8 23 -18l125 -47q27 14 51 14q100 0 168 -200q-4 -12 -8 -13q-4 0 -12.5 11.5t-10.5 11.5q8 -14 8 -31q0 -18 -14.5 -52t-14.5 -50q0 -25 21 -43q-23 -82 -96 -82q-27 0 -92 14q-37 25 -115 55q-57 23 -96 64q-98 -43 -99 -215 q0 -51 9 -115q14 -51 110 -65q14 -29 55 -29q12 0 45 4t52 4q23 0 39 -4q205 45 231 55q127 47 197 166q45 188 45 342q0 41 -4 80q-23 33 -68 145q-37 86 -74 115h33q2 6 45 172q33 117 33 195q0 45 -10 84q-31 98 -144 184q-98 76 -198 100q-434 0 -514 -176q33 -8 18 -24 q-16 -4 -33 -13q-35 -18 -57 -63l-51 -14q-39 -61 -50 -99q-6 -20 -4 -20q-16 4 -36 4q8 -106 8 -105q-10 -68 -23 -133l-28 13q57 -43 57 -109q0 -23 -8.5 -68t-8.5 -67q0 -47 27 -82q-43 6 -53 -27q-14 -47 -37 -57q14 -51 14 -127q0 -27 -2 -83t-2 -85q0 -82 13 -137 q-14 14 -23 10z" />
<glyph unicode="&#xe4;" horiz-adv-x="1081" d="M0 481h41q0 -55 -25 -51q-8 -20 -8 -41q0 -33 35 -91t35 -83q0 -16 -8 -31l-29 11q-6 -63 63 -93q80 -35 91 -84q20 -18 49 -18q25 0 67.5 18.5t55.5 18.5q10 0 16 -8l18 57q63 10 76 -25q2 12 28.5 23.5t33.5 30.5q18 -8 37.5 -19.5t19.5 -27.5q0 -8 -6 -21 q82 -35 160 -35q92 0 172 45q10 107 -41 150q29 18 28 67q0 10 -2 32t-2 32q0 41 17 63q-2 72 -19 318q-14 195 -10 311q-43 109 -85 151t-151 85q-33 6 -98 -17q-74 -25 -106 -24q-45 0 -80 28q-29 4 -51 4q-115 0 -236 -129q39 -86 39 -147q0 -45 -16 -98q27 -33 65 -33 q55 -2 72 -8q35 16 70.5 32.5t35.5 49.5q0 16 -8 39q14 6 57 45q33 31 62 30q16 0 35 -8q49 -10 61 -63q8 -25 8 -97q-188 -150 -344 -137q-84 -49 -223 -252zM129 1423q0 20 8 47q31 25 34 80.5t7 57.5q2 14 -8 24q-16 16 -16 17q25 -6 88 8q72 14 98 14q82 0 90 -92 q-18 -20 -18 -51q0 -14 5 -45t5 -45q0 -43 -39 -64q-16 2 -74 -6q-66 -12 -94 -12q-86 0 -86 67zM324 406q0 27 35.5 63.5t41.5 56.5q8 -4 19 -4q20 0 67.5 22.5t63.5 22.5q35 1 27 -69q-20 -25 -34 -94.5t-28 -94.5q-27 -41 -86 -35q-14 -6 -27 -6q-31 0 -51 37 q-20 31 -20 68q-8 16 -8 33zM477 61q0 -6 4 -14q0 6 -4 14zM520 1556q16 -2 27 -2q16 0 59 43l-28 29q68 49 194 39q4 -16 20.5 -34t30.5 -34q-10 -27 -10 -61q0 -12 2 -35v-31q0 -55 -43 -79l-115 12l19 -41q-18 -4 -35 -4q-55 0 -80 76q-37 119 -41 122z" />
<glyph unicode="&#xe5;" horiz-adv-x="1071" d="M2 272q37 -74 160 -256q12 6 28 7q20 0 83 -13.5t98 -13.5q23 0 39 4q6 4 61 23q31 12 31 45q45 -10 176 -21q96 -8 180 -47q-2 10 -2 16q0 16 24.5 24.5t28.5 16.5q-14 78 -14 197q0 74 8 235.5t8 241.5q0 203 -41 320q-23 121 -147 170q-33 12 -234 51l29 51 q6 -14 31 -12q33 2 37 0q76 76 100 106q49 63 66 127q-8 37 -97 225q-84 39 -106 48q-51 18 -115 22q-14 -14 -110 -39q-72 -18 -66 -82q2 -33 -16.5 -106.5t-18.5 -112.5q0 -78 55.5 -141.5t131.5 -63.5l-17 -51q-4 0 -28 -2q-18 0 -23 12l12 19q-160 -49 -161 -49 q-78 -35 -101 -117q-39 -16 -39 -107q0 -59 17 -125l22 39l58 -67q43 -18 73 -19q51 0 86 62q53 92 74 110q27 4 71 -9t56 -13q10 0 20 4q-4 -6 -4 -14q0 -18 26 -46t26 -42q0 -16 -21 -33q-61 -35 -176 -62q-121 -27 -164 -47q-106 -63 -166.5 -195t-48.5 -270zM326 354 q0 100 108 178l96 41q-4 -12 -4 -28q0 -29 18.5 -90.5t18.5 -87.5q0 -75 -102 -95q-12 8 -27 9q-14 0 -33.5 -13.5t-25.5 -13.5q-16 0 -32.5 32.5t-16.5 67.5zM375 1563q0 88 104 116q16 -16 72 -24q49 -8 63 -43q4 -45 -29.5 -76t-66.5 -61q-37 2 -73.5 6t-61.5 45 q-8 18 -8 37z" />
<glyph unicode="&#xe6;" horiz-adv-x="1667" d="M0 461q0 -35 20.5 -107.5t20.5 -107.5q0 -27 -6 -47q111 -199 358 -199q41 0 90 6q8 16 49 37q33 16 33 33q0 6 -2 14h31q18 0 24 -16q0 31 28 49t52 37q59 2 111 -51q70 -74 94 -86q84 -14 158 -15q143 0 268 53q6 12 96 97q76 68 68 137q4 20 4 35q0 29 -20 59 q-29 39 -39 72l-29 -47q-14 33 -59 32q-6 0 -21 -2h-20q-27 0 -37 17q10 -29 -39 -76q-59 -57 -68 -78l-12 17l-16 -58q-6 2 -13 2q-10 0 -26.5 -8t-24.5 -8t-16 4q-59 12 -86 90q-35 106 -51 125q33 6 32 23q0 6 -3 16t-3 16q0 14 15 25q55 18 126 18q39 0 116 -7t116 -7 q106 0 186 41q10 137 11 197q0 229 -91 348q-4 20 -48 31.5t-36 48.5q-35 29 -90 28q-29 0 -93 -12t-97 -12q-61 0 -100 37v-52q-16 10 -35 11q-25 0 -68 -23q-55 -29 -74 -33q-125 92 -301 113q-35 0 -115.5 -38t-125.5 -38q-23 0 -43 8q-70 -53 -70 -147v-31q2 -20 2 -28 q0 -78 -57 -113q27 -41 94 -41q12 0 42 2t44 2q47 0 82 -14q23 72 82 123t131 51q31 0 59 -8q8 -27 51 -86q-8 -51 -69 -89q-92 -55 -96 -59q-145 -49 -177 -49q-25 0 -38 10q-35 -70 -97 -96q-68 -29 -137 -57q0 -4 2 -25q2 -14 0 -25q-2 -12 -12 -18l-19 16 q-16 -31 -16 -67zM371 373q0 14 4 30l28 97q102 68 177 67q170 0 170 -96q0 -31 -23 -68q-57 -6 -144 -72.5t-157 -74.5q-16 25 -33 49q-23 37 -22 68zM940 889q0 25 37 54.5t39 62.5q33 8 57 8q55 0 82 -49q12 -20 37 -113q6 -16 6 -27q0 -31 -41 -30h-24q-16 2 -25 2 q-29 0 -41 -13q-35 8 -70 19q-43 12 -49 49q-8 20 -8 37z" />
<glyph unicode="&#xeb;" horiz-adv-x="1079" d="M0 983q80 -82 80 -231q0 -31 -4 -91.5t-4 -91.5q0 -109 37 -178q0 -272 124 -323q31 -41 113 -41q8 0 23 2h24q74 0 113 -29q213 29 323 176q-2 43 37 117t39 108q0 31 -18 60q-27 37 -53 37q-10 0 -30 -6.5t-32 -6.5q-20 0 -39 21q-23 -31 -78 -32t-69 -36 q4 -35 -11.5 -75.5t-46.5 -61.5q-43 -18 -82 -18q-45 0 -67.5 31.5t-34.5 92t-31 82.5q8 25 19.5 54t36.5 43q158 -10 295 39q20 -43 77 -43q8 0 54 4q33 2 51 0q29 10 61.5 25.5t32.5 37.5q0 8 -2 15q-14 156 -29 311q-35 188 -159 264q-12 -2 -58.5 15.5t-68.5 17.5 q-35 0 -50 -33q-94 43 -211 43q-31 0 -61 -4q-68 -37 -192 -119q-33 -20 -56.5 -93t-52.5 -83zM129 1423q0 20 8 47q31 25 34 80.5t7 57.5q2 14 -8 24q-16 16 -16 17q25 -6 88 8q72 14 98 14q82 0 90 -92q-18 -20 -18 -51q0 -14 5 -45t5 -45q0 -43 -39 -64q-16 2 -74 -6 q-66 -12 -94 -12q-86 0 -86 67zM348 870q0 90 72 164q16 -4 47 0q41 4 49 4q53 0 57 -55q-16 -18 -16 -33q0 -12 24.5 -35.5t24.5 -40.5q0 -14 -10 -28q-39 -18 -98 -19q-20 0 -57.5 2t-53.5 2q-20 0 -35 -2q-4 20 -4 41zM520 1556q16 -2 27 -2q16 0 59 43l-28 29 q68 49 194 39q4 -16 20.5 -34t30.5 -34q-10 -27 -10 -61q0 -12 2 -35v-31q0 -55 -43 -79l-115 12l19 -41q-18 -4 -35 -4q-55 0 -80 76q-37 119 -41 122z" />
<glyph unicode="&#xf6;" horiz-adv-x="1126" d="M0 379q41 -43 121 -158q70 -100 119 -143q78 -66 184 -78q25 23 65 23q16 0 54.5 -5.5t56.5 -5.5q49 0 79 27t114 80q74 47 108 86q80 291 80 471q0 86 -12 180q-27 41 -40.5 116t-43.5 115q-23 78 -103 123q-70 41 -157 41q-51 0 -93 -16q-51 16 -106 16 q-121 0 -317 -106q16 -12 16 -45q-51 -119 -96 -109q-18 -102 -15.5 -307t-13.5 -305zM164 1427q12 20 12 52q0 16 -4 52t-4 52q0 57 37 88q23 -12 61 -12q14 0 43 2t41 2q79 0 99 -59q6 -49 -17 -129q-25 -90 -24 -127q-20 -6 -43 -7q-66 0 -201 86zM356 485 q0 45 12.5 143.5t12.5 145.5q0 55 -12 98q45 135 135 148q29 -25 98 -127q57 -84 117 -117q6 -59 -23 -155q-30 -103 -28 -156q10 -68 -62 -119q-106 -78 -112 -86q-137 53 -138 225zM532 1536l52 16q-23 10 -25 35q2 -14 2 45q43 29 117 29q55 -1 137 -19q0 -47 29 -67 l-39 -12q2 -20 12 -59.5t10 -57.5q0 -41 -41 -76q-45 -10 -90 -10q-137 0 -151 96q14 12 14 33q0 39 -27 47z" />
<glyph unicode="&#xf8;" horiz-adv-x="1087" d="M-12 420q0 -59 50 -169t50 -163q0 -61 -43 -113q35 -43 68 -43q8 0 12 2q31 18 61 35q39 27 35 62q113 -29 217 -29q221 0 344 125q152 156 152 543q0 63 -4 139q-29 47 -49.5 172t-59.5 178q45 25 45 76q0 39 -23.5 72.5t-54.5 33.5q-37 0 -63 -57q-45 -35 -115 -35 q-53 0 -78 35q-43 -14 -149 -27q-113 -14 -160 -28q-84 -25 -121 -80q10 -8 11 -45q-16 -18 -45 -36.5t-33 -14.5q-18 -63 -19 -138q0 -61 16.5 -181t16.5 -177q0 -35 -4 -68l-29 29q-29 -47 -28 -98zM311 633q0 31 14.5 94.5t14.5 95.5q0 35 -12 64q4 33 32 67l54 58 q37 2 73 6q45 2 62 16q2 0 47 -45q33 -33 33 -57q0 -25 -29 -45q8 -23 -31 -60q-51 -53 -59 -65l147 -119q-16 -88 -33.5 -175t-74.5 -165l-135 -39q-14 23 -15 64q0 35 13.5 98t13.5 82q63 14 78.5 84t73.5 92l-68 68l-193 -164q-6 20 -6 45z" />
<glyph unicode="&#xfc;" horiz-adv-x="1103" d="M0 944q0 -53 14.5 -170t14.5 -176q0 -45 -6 -84q10 -2 20 16.5t20 24.5q6 -20 54 -66q41 -39 41 -69q0 -16 -8 -33q-59 -47 -58 -98l-80 47q23 -35 51 -152q18 -86 99 -127q-8 14 13.5 33t43.5 37l70 -127q90 16 180 35q100 23 166 63q39 -88 131 -88q29 0 80 9.5t67 9.5 q39 682 39 792q1 242 -26 441q-33 16 -95 16h-86q-49 -16 -55 -23q-18 -12 -14 -47q-12 -16 -23 -16q-8 0 -18 20.5t-14 20.5q-6 0 -11.5 -12.5t-5.5 -24.5q0 -29 21.5 -96.5t21.5 -102.5q0 -31 -12 -55l-17 19q-12 -76 -12 -326q0 -205 -39 -318q-55 -35 -112 -34 q-68 0 -97 53q-2 37 0 463q0 281 -28 463q-117 -25 -209 -25q27 -39 26 -39q0 -10 -14 -18l-29 28q4 -14 5 -30q0 -20 -16.5 -64.5t-12.5 -73.5q-8 12 -28.5 22.5t-28.5 18.5q-23 -55 -23 -137zM92 209q2 0 29 -12q-1 -35 -17 -47zM129 1423q0 20 8 47q31 25 34 80.5t7 57.5 q2 14 -8 24q-16 16 -16 17q25 -6 88 8q72 14 98 14q82 0 90 -92q-18 -20 -18 -51q0 -14 5 -45t5 -45q0 -43 -39 -64q-16 2 -74 -6q-66 -12 -94 -12q-86 0 -86 67zM520 1556q16 -2 27 -2q16 0 59 43l-28 29q68 49 194 39q4 -16 20.5 -34t30.5 -34q-10 -27 -10 -61 q0 -12 2 -35v-31q0 -55 -43 -79l-115 12l19 -41q-18 -4 -35 -4q-55 0 -80 76q-37 119 -41 122z" />
<glyph unicode="&#x153;" horiz-adv-x="1667" d="M0 461q0 -35 20.5 -107.5t20.5 -107.5q0 -27 -6 -47q111 -199 358 -199q41 0 90 6q8 16 49 37q33 16 33 33q0 6 -2 14h31q18 0 24 -16q0 31 28 49t52 37q59 2 111 -51q70 -74 94 -86q84 -14 158 -15q143 0 268 53q6 12 96 97q76 68 68 137q4 20 4 35q0 29 -20 59 q-29 39 -39 72l-29 -47q-14 33 -59 32q-6 0 -21 -2h-20q-27 0 -37 17q10 -29 -39 -76q-59 -57 -68 -78l-12 17l-16 -58q-6 2 -13 2q-10 0 -26.5 -8t-24.5 -8t-16 4q-59 12 -86 90q-35 106 -51 125q33 6 32 23q0 6 -3 16t-3 16q0 14 15 25q55 18 126 18q39 0 116 -7t116 -7 q106 0 186 41q10 137 11 197q0 229 -91 348q-4 20 -48 31.5t-36 48.5q-35 29 -90 28q-29 0 -93 -12t-97 -12q-61 0 -100 37v-52q-16 10 -35 11q-25 0 -68 -23q-55 -29 -74 -33q-125 92 -301 113q-35 0 -115.5 -38t-125.5 -38q-23 0 -43 8q-70 -53 -70 -147v-31q2 -20 2 -28 q0 -78 -57 -113q27 -41 94 -41q12 0 42 2t44 2q47 0 82 -14q23 72 82 123t131 51q31 0 59 -8q8 -27 51 -86q-8 -51 -69 -89q-92 -55 -96 -59q-145 -49 -177 -49q-25 0 -38 10q-35 -70 -97 -96q-68 -29 -137 -57q0 -4 2 -25q2 -14 0 -25q-2 -12 -12 -18l-19 16 q-16 -31 -16 -67zM371 373q0 14 4 30l28 97q102 68 177 67q170 0 170 -96q0 -31 -23 -68q-57 -6 -144 -72.5t-157 -74.5q-16 25 -33 49q-23 37 -22 68zM940 889q0 25 37 54.5t39 62.5q33 8 57 8q55 0 82 -49q12 -20 37 -113q6 -16 6 -27q0 -31 -41 -30h-24q-16 2 -25 2 q-29 0 -41 -13q-35 8 -70 19q-43 12 -49 49q-8 20 -8 37z" />
<glyph unicode="&#x2000;" horiz-adv-x="984" />
<glyph unicode="&#x2001;" horiz-adv-x="1968" />
<glyph unicode="&#x2002;" horiz-adv-x="984" />
<glyph unicode="&#x2003;" horiz-adv-x="1968" />
<glyph unicode="&#x2004;" horiz-adv-x="656" />
<glyph unicode="&#x2005;" horiz-adv-x="492" />
<glyph unicode="&#x2006;" horiz-adv-x="328" />
<glyph unicode="&#x2007;" horiz-adv-x="328" />
<glyph unicode="&#x2008;" horiz-adv-x="246" />
<glyph unicode="&#x2009;" horiz-adv-x="393" />
<glyph unicode="&#x200a;" horiz-adv-x="109" />
<glyph unicode="&#x2010;" d="M-20 621l26 -27q20 72 21 119q0 47 -21 118q111 41 256 41q66 0 205 -11t213 -11q129 0 235 27q90 -63 91 -191q0 -53 -19 -133q-12 -63 -26 -127q-57 8 -127 8q-76 0 -257.5 -14t-281.5 -14q-139 0 -254 20z" />
<glyph unicode="&#x2011;" d="M-20 621l26 -27q20 72 21 119q0 47 -21 118q111 41 256 41q66 0 205 -11t213 -11q129 0 235 27q90 -63 91 -191q0 -53 -19 -133q-12 -63 -26 -127q-57 8 -127 8q-76 0 -257.5 -14t-281.5 -14q-139 0 -254 20z" />
<glyph unicode="&#x2012;" d="M-20 621l26 -27q20 72 21 119q0 47 -21 118q111 41 256 41q66 0 205 -11t213 -11q129 0 235 27q90 -63 91 -191q0 -53 -19 -133q-12 -63 -26 -127q-57 8 -127 8q-76 0 -257.5 -14t-281.5 -14q-139 0 -254 20z" />
<glyph unicode="&#x2013;" horiz-adv-x="1175" d="M-20 621l26 -27q20 72 21 119q0 47 -21 118q111 41 255 41q66 0 205 -11t213 -11q128 0 234 27q90 -63 91 -191q0 -53 -19 -133q-12 -63 -26 -127q-57 8 -127 8q-76 0 -257 -14t-281 -14q-138 0 -253 20z" />
<glyph unicode="&#x2014;" horiz-adv-x="2199" d="M-20 621l52 -27q40 72 42 119q0 47 -42 118q221 41 511 41q132 0 409.5 -11t424.5 -11q258 0 469 27q180 -63 182 -191q0 -53 -38 -133q-24 -63 -52 -127q-114 8 -253 8q-152 0 -514.5 -14t-561.5 -14q-278 0 -507 20z" />
<glyph unicode="&#x2018;" horiz-adv-x="448" d="M-4 1249q0 156 72 213q-4 14 -5 27q0 51 60 94q49 33 98 64q6 -4 58 -17q37 -8 50 -35t13 -47q0 -39 -59.5 -92t-59.5 -90q0 -29 25 -63q18 8 33 8q37 0 45 -72q8 -84 14 -90q-23 -37 -25 -86t-2 -100q-61 -25 -123 -25q-98 0 -167 63q-27 172 -27 248z" />
<glyph unicode="&#x2019;" horiz-adv-x="475" d="M33 1028q0 39 59.5 92.5t59.5 89.5q0 29 -25 64q-18 -8 -33 -8q-37 0 -45 71q-10 84 -16 90q25 37 26 86v99q63 27 123 26q98 0 168 -63q29 -172 29 -250q0 -154 -72 -211q4 -14 4 -27q0 -51 -61 -94q-47 -33 -96 -65q-8 6 -58 18q-37 8 -50 35t-13 47z" />
<glyph unicode="&#x201c;" horiz-adv-x="909" d="M-4 1249q0 156 72 213q-4 14 -5 27q0 51 60 94q49 33 98 64q6 -4 58 -17q37 -8 50 -35t13 -47q0 -39 -59.5 -92t-59.5 -90q0 -29 25 -63q18 8 33 8q37 0 45 -72q8 -84 14 -90q-23 -37 -25 -86t-2 -100q-61 -25 -123 -25q-98 0 -167 63q-27 172 -27 248zM406 1303 q35 2 19.5 72.5t10 87t96.5 112.5q53 74 125 84q8 -14 19 -14q6 0 19.5 8t19.5 8q12 0 20 -14q10 -27 10 -56q0 -59 -47 -131q-35 -51 -67 -102q4 -4 31 -35q20 -25 32 -25q8 0 13 5q35 -53 34 -136q0 -23 -4 -88q-4 -55 -2 -88q-20 -10 -42.5 -21.5t-22.5 -33.5 q-18 4 -111 18q-63 10 -115 37q14 23 15 62q0 41 -21 123q-27 100 -32 127z" />
<glyph unicode="&#x201d;" horiz-adv-x="899" d="M0 1399q0 47 33 100q29 18 28 72q0 37 -18 47q86 31 152 31q129 0 149 -123q0 -66 -16 -228q-16 -141 -11 -223q-29 -14 -88 -86q-49 -61 -90 -61q-14 0 -30 6q-59 53 -76 115l25.5 -25.5t27.5 -13.5q51 63 51 116q0 51 -68.5 133t-68.5 140zM410 1423q25 29 6 90 q-14 53 28.5 91t96.5 38q20 0 64 -8t69 -8q17 0 31 2q45 -55 34 -207q-14 -174 4 -227l-38 -55l28 -27l-78 -98q-61 -70 -120 -70q-12 0 -23 2q-47 39 -47 86q0 12 35 115q25 70 -15 121q-41 6 -41 51v27q2 18 2 28q0 43 -36 49z" />
<glyph unicode="&#x2022;" horiz-adv-x="604" d="M4 918q0 125 88 172q31 -16 86 -17q25 0 76 4t76 4q117 0 116 -94q0 -26 -8 -63q16 -240 -96 -306q-16 20 -41 21q-23 0 -67 -23.5t-58 -23.5q-6 4 -86 33q-51 18 -80 63q4 27 4 60q0 27 -5 85t-5 85z" />
<glyph unicode="&#x202f;" horiz-adv-x="393" />
<glyph unicode="&#x205f;" horiz-adv-x="492" />
<glyph unicode="&#x2122;" horiz-adv-x="1173" d="M12 1542q0 6 2 10q4 -4 11 -4q6 0 13 12.5t5 20.5q-6 8 -12 4l-8 -8q-4 0 -9 8q4 16 24.5 19.5t27.5 13.5q23 -14 49 -8q45 10 47 10q19 0 35 -12q31 -8 82 -2q72 10 83 10q35 0 62 -14q-4 -12 0 -46t0 -49q-8 -23 -35 -20q-8 -2 -16 -2q-10 0 -28.5 4t-27.5 4 q-20 0 -26 -23q6 -49 6 -110q0 -47 -5 -141.5t-5 -141.5q0 -53 4 -98l-12 12q-4 -4 -5 -16q-4 0 -55 -4q-33 0 -43 -15q-37 16 -37 68q4 78 2 82q8 53 0 149h21q12 -2 14 11l-22 12q2 4 23.5 5t15.5 22q-4 2 -9 2q-4 0 -13 -4.5t-13 -4.5q-8 0 -8 14.5t-7.5 40t-7.5 38.5 q0 18 12 28q-8 31 23 51q-14 25 -39 25q-10 0 -29.5 -4t-29.5 -4q-20 0 -33 12zM426 1446q25 -4 16 -27q-6 -70 17 -315q-18 -8 -17 -8q6 -37 17 -111q23 4 26 -18q10 8 41 6t43 12q10 45 11 100q0 25 -3.5 73t-3.5 71q0 51 13 92q16 -39 47 -166q25 -113 63 -170q4 6 13 0 q8 -12 10 -12q41 -10 82 45q-4 37 16 104l6 -6q0 55 49 254q16 -16 19 -35q-2 -18 -2 -37q2 -4 20 -30q12 -16 31 -15q2 -10 -7 -17t-18 -15l-26 45l6 -72q-10 6 -10 4q-6 -6 -3 -18.5t-3 -20.5l-7 8l13 -24q-4 -4 -17 -4l17 -13q2 -23 -17 -39q12 -25 23 -49q16 -31 16 -53 q29 0 33 -18q8 12 38 15t40 19q-4 195 0 584q-10 27 -37 31q27 -4 -47 -4q-10 16 -25 16q-8 0 -28.5 -6t-32.5 -6q-10 0 -19 4q-27 -6 -20 -31q8 -33 -4 -43q2 -6 12 -23.5t10 -27.5q0 -12 -10 -20l-4 6q10 -47 4 -56l-20 7l-6 -39l-17 22q-2 -27 0 -84l-24 12 q39 -25 24 -77q-6 4 -10 4q-6 0 -35 -27q0 14 -22 39q4 14 4 29q0 23 -15 67q-14 39 -10 64q-20 23 -22 55v62q-4 33 -29 53q-10 -2 -30.5 8t-29.5 10q-12 0 -22 -10q-18 8 -16 8q-4 -10 -28 -10t-28 -6q8 -6 2 -19q-8 -18 -8 -20l-20 29q-12 -6 -17 -23q-2 -14 8 -23 l-20 -26q18 -25 18 -51q0 -23 -18 -33zM895 1315l6 -6q6 2 14 0q-2 -4 -2 -6q0 -6 14.5 -11.5t14.5 -9.5t-8 -12l-33 39q-4 2 -6 6z" />
<glyph unicode="&#x25fc;" horiz-adv-x="1280" d="M0 0v1280h1280v-1280h-1280z" />
</font>
</defs>
</svg>
